# Blender 4.4.0
# www.blender.org
mtllib Footprint_alpha.mtl
o Plane.001
v 0.050094 0.000000 0.397144
v 0.522457 0.000000 0.397144
v 0.050094 0.000000 0.088468
v 0.522457 0.000000 0.088468
v -0.005191 0.000000 0.242806
v 0.286275 0.000000 0.433271
v 0.577742 0.000000 0.242806
v 0.286275 0.000000 0.052340
v 0.286275 0.000000 0.242806
v 0.050094 0.000000 -0.397144
v 0.522457 0.000000 -0.397144
v 0.050094 0.000000 -0.088468
v 0.522457 0.000000 -0.088468
v -0.005191 0.000000 -0.242806
v 0.286275 0.000000 -0.433271
v 0.577742 0.000000 -0.242806
v 0.286275 0.000000 -0.052340
v 0.286275 0.000000 -0.242806
v -0.003427 0.000000 0.287912
v 0.004177 0.000000 0.330365
v 0.021087 0.000000 0.367513
v 0.355301 0.000000 0.432118
v 0.420267 0.000000 0.427149
v 0.477113 0.000000 0.416098
v 0.575978 0.000000 0.197699
v 0.568373 0.000000 0.155246
v 0.551463 0.000000 0.118099
v 0.217250 0.000000 0.053493
v 0.152284 0.000000 0.058462
v 0.095438 0.000000 0.069513
v 0.021087 0.000000 0.118099
v 0.004177 0.000000 0.155246
v -0.003427 0.000000 0.197699
v 0.095438 0.000000 0.416098
v 0.152284 0.000000 0.427149
v 0.217250 0.000000 0.432118
v 0.551463 0.000000 0.367513
v 0.568373 0.000000 0.330365
v 0.575978 0.000000 0.287912
v 0.477113 0.000000 0.069513
v 0.420267 0.000000 0.058462
v 0.355301 0.000000 0.053493
v 0.286275 0.000000 0.195189
v 0.286275 0.000000 0.147573
v 0.286275 0.000000 0.099957
v 0.286275 0.000000 0.385655
v 0.286275 0.000000 0.338038
v 0.286275 0.000000 0.290422
v 0.213409 0.000000 0.242806
v 0.140542 0.000000 0.242806
v 0.067675 0.000000 0.242806
v 0.504875 0.000000 0.242806
v 0.432009 0.000000 0.242806
v 0.359142 0.000000 0.242806
v -0.003427 0.000000 -0.287912
v 0.004177 0.000000 -0.330365
v 0.021087 0.000000 -0.367513
v 0.355301 0.000000 -0.432118
v 0.420267 0.000000 -0.427149
v 0.477113 0.000000 -0.416098
v 0.575978 0.000000 -0.197699
v 0.568373 0.000000 -0.155246
v 0.551463 0.000000 -0.118099
v 0.217250 0.000000 -0.053493
v 0.152284 0.000000 -0.058462
v 0.095437 0.000000 -0.069513
v 0.021087 0.000000 -0.118099
v 0.004177 0.000000 -0.155246
v -0.003427 0.000000 -0.197699
v 0.095437 0.000000 -0.416098
v 0.152284 0.000000 -0.427149
v 0.217250 0.000000 -0.432118
v 0.551463 0.000000 -0.367513
v 0.568373 0.000000 -0.330365
v 0.575978 0.000000 -0.287912
v 0.477113 0.000000 -0.069513
v 0.420267 0.000000 -0.058462
v 0.355301 0.000000 -0.053493
v 0.286275 0.000000 -0.195189
v 0.286275 0.000000 -0.147573
v 0.286275 0.000000 -0.099957
v 0.286275 0.000000 -0.385655
v 0.286275 0.000000 -0.338038
v 0.286275 0.000000 -0.290422
v 0.213409 0.000000 -0.242806
v 0.140542 0.000000 -0.242806
v 0.067675 0.000000 -0.242806
v 0.504875 0.000000 -0.242806
v 0.432009 0.000000 -0.242806
v 0.359142 0.000000 -0.242806
v 0.358856 0.000000 0.195376
v 0.431352 0.000000 0.195909
v 0.503707 0.000000 0.196728
v 0.358040 0.000000 0.148002
v 0.429129 0.000000 0.149455
v 0.499089 0.000000 0.152033
v 0.356787 0.000000 0.100720
v 0.425184 0.000000 0.103738
v 0.489832 0.000000 0.109787
v 0.068843 0.000000 0.196728
v 0.141199 0.000000 0.195909
v 0.213695 0.000000 0.195376
v 0.073461 0.000000 0.152033
v 0.143422 0.000000 0.149455
v 0.214510 0.000000 0.148002
v 0.082719 0.000000 0.109787
v 0.147366 0.000000 0.103738
v 0.215764 0.000000 0.100720
v 0.082719 0.000000 0.375824
v 0.147366 0.000000 0.381874
v 0.215764 0.000000 0.384891
v 0.073461 0.000000 0.333579
v 0.143422 0.000000 0.336156
v 0.214510 0.000000 0.337609
v 0.068843 0.000000 0.288883
v 0.141199 0.000000 0.289702
v 0.213695 0.000000 0.290235
v 0.356787 0.000000 0.384891
v 0.425184 0.000000 0.381874
v 0.489832 0.000000 0.375824
v 0.358040 0.000000 0.337609
v 0.429129 0.000000 0.336156
v 0.499089 0.000000 0.333579
v 0.358856 0.000000 0.290235
v 0.431352 0.000000 0.289702
v 0.503707 0.000000 0.288883
v 0.358856 0.000000 -0.195376
v 0.358040 0.000000 -0.148002
v 0.356787 0.000000 -0.100720
v 0.431352 0.000000 -0.195909
v 0.429129 0.000000 -0.149455
v 0.425184 0.000000 -0.103738
v 0.503707 0.000000 -0.196728
v 0.499089 0.000000 -0.152033
v 0.489832 0.000000 -0.109787
v 0.068843 0.000000 -0.196728
v 0.073461 0.000000 -0.152033
v 0.082719 0.000000 -0.109787
v 0.141199 0.000000 -0.195909
v 0.143422 0.000000 -0.149455
v 0.147366 0.000000 -0.103738
v 0.213695 0.000000 -0.195376
v 0.214510 0.000000 -0.148002
v 0.215764 0.000000 -0.100720
v 0.082719 0.000000 -0.375824
v 0.073461 0.000000 -0.333579
v 0.068843 0.000000 -0.288883
v 0.147366 0.000000 -0.381874
v 0.143422 0.000000 -0.336156
v 0.141199 0.000000 -0.289702
v 0.215764 0.000000 -0.384891
v 0.214510 0.000000 -0.337609
v 0.213695 0.000000 -0.290235
v 0.356787 0.000000 -0.384891
v 0.358040 0.000000 -0.337609
v 0.358856 0.000000 -0.290235
v 0.425184 0.000000 -0.381874
v 0.429129 0.000000 -0.336156
v 0.431352 0.000000 -0.289702
v 0.489832 0.000000 -0.375824
v 0.499089 0.000000 -0.333579
v 0.503707 0.000000 -0.288883
v 0.050094 -0.020000 0.397144
v 0.522457 -0.020000 0.397144
v 0.050094 -0.020000 0.088468
v 0.522457 -0.020000 0.088468
v -0.005191 -0.020000 0.242806
v 0.286275 -0.020000 0.433271
v 0.577742 -0.020000 0.242806
v 0.286275 -0.020000 0.052340
v 0.286275 -0.020000 0.242806
v 0.050094 -0.020000 -0.397144
v 0.522457 -0.020000 -0.397144
v 0.050094 -0.020000 -0.088468
v 0.522457 -0.020000 -0.088468
v -0.005191 -0.020000 -0.242806
v 0.286275 -0.020000 -0.433271
v 0.577742 -0.020000 -0.242806
v 0.286275 -0.020000 -0.052340
v 0.286275 -0.020000 -0.242806
v -0.003427 -0.020000 0.287912
v 0.004177 -0.020000 0.330365
v 0.021087 -0.020000 0.367513
v 0.355301 -0.020000 0.432118
v 0.420267 -0.020000 0.427149
v 0.477113 -0.020000 0.416098
v 0.575978 -0.020000 0.197699
v 0.568373 -0.020000 0.155246
v 0.551463 -0.020000 0.118099
v 0.217250 -0.020000 0.053493
v 0.152284 -0.020000 0.058462
v 0.095438 -0.020000 0.069513
v 0.021087 -0.020000 0.118099
v 0.004177 -0.020000 0.155246
v -0.003427 -0.020000 0.197699
v 0.095438 -0.020000 0.416098
v 0.152284 -0.020000 0.427149
v 0.217250 -0.020000 0.432118
v 0.551463 -0.020000 0.367513
v 0.568373 -0.020000 0.330365
v 0.575978 -0.020000 0.287912
v 0.477113 -0.020000 0.069513
v 0.420267 -0.020000 0.058462
v 0.355301 -0.020000 0.053493
v 0.286275 -0.020000 0.195189
v 0.286275 -0.020000 0.147573
v 0.286275 -0.020000 0.099957
v 0.286275 -0.020000 0.385655
v 0.286275 -0.020000 0.338038
v 0.286275 -0.020000 0.290422
v 0.213409 -0.020000 0.242806
v 0.140542 -0.020000 0.242806
v 0.067675 -0.020000 0.242806
v 0.504875 -0.020000 0.242806
v 0.432009 -0.020000 0.242806
v 0.359142 -0.020000 0.242806
v -0.003427 -0.020000 -0.287912
v 0.004177 -0.020000 -0.330365
v 0.021087 -0.020000 -0.367513
v 0.355301 -0.020000 -0.432118
v 0.420267 -0.020000 -0.427149
v 0.477113 -0.020000 -0.416098
v 0.575978 -0.020000 -0.197699
v 0.568373 -0.020000 -0.155246
v 0.551463 -0.020000 -0.118099
v 0.217250 -0.020000 -0.053493
v 0.152284 -0.020000 -0.058462
v 0.095437 -0.020000 -0.069513
v 0.021087 -0.020000 -0.118099
v 0.004177 -0.020000 -0.155246
v -0.003427 -0.020000 -0.197699
v 0.095437 -0.020000 -0.416098
v 0.152284 -0.020000 -0.427149
v 0.217250 -0.020000 -0.432118
v 0.551463 -0.020000 -0.367513
v 0.568373 -0.020000 -0.330365
v 0.575978 -0.020000 -0.287912
v 0.477113 -0.020000 -0.069513
v 0.420267 -0.020000 -0.058462
v 0.355301 -0.020000 -0.053493
v 0.286275 -0.020000 -0.195189
v 0.286275 -0.020000 -0.147573
v 0.286275 -0.020000 -0.099957
v 0.286275 -0.020000 -0.385655
v 0.286275 -0.020000 -0.338038
v 0.286275 -0.020000 -0.290422
v 0.213409 -0.020000 -0.242806
v 0.140542 -0.020000 -0.242806
v 0.067675 -0.020000 -0.242806
v 0.504875 -0.020000 -0.242806
v 0.432009 -0.020000 -0.242806
v 0.359142 -0.020000 -0.242806
v 0.358856 -0.020000 0.195376
v 0.431352 -0.020000 0.195909
v 0.503707 -0.020000 0.196728
v 0.358040 -0.020000 0.148002
v 0.429129 -0.020000 0.149455
v 0.499089 -0.020000 0.152033
v 0.356787 -0.020000 0.100720
v 0.425184 -0.020000 0.103738
v 0.489832 -0.020000 0.109787
v 0.068843 -0.020000 0.196728
v 0.141199 -0.020000 0.195909
v 0.213695 -0.020000 0.195376
v 0.073461 -0.020000 0.152033
v 0.143422 -0.020000 0.149455
v 0.214510 -0.020000 0.148002
v 0.082719 -0.020000 0.109787
v 0.147366 -0.020000 0.103738
v 0.215764 -0.020000 0.100720
v 0.082719 -0.020000 0.375824
v 0.147366 -0.020000 0.381874
v 0.215764 -0.020000 0.384891
v 0.073461 -0.020000 0.333579
v 0.143422 -0.020000 0.336156
v 0.214510 -0.020000 0.337609
v 0.068843 -0.020000 0.288883
v 0.141199 -0.020000 0.289702
v 0.213695 -0.020000 0.290235
v 0.356787 -0.020000 0.384891
v 0.425184 -0.020000 0.381874
v 0.489832 -0.020000 0.375824
v 0.358040 -0.020000 0.337609
v 0.429129 -0.020000 0.336156
v 0.499089 -0.020000 0.333579
v 0.358856 -0.020000 0.290235
v 0.431352 -0.020000 0.289702
v 0.503707 -0.020000 0.288883
v 0.358856 -0.020000 -0.195376
v 0.358040 -0.020000 -0.148002
v 0.356787 -0.020000 -0.100720
v 0.431352 -0.020000 -0.195909
v 0.429129 -0.020000 -0.149455
v 0.425184 -0.020000 -0.103738
v 0.503707 -0.020000 -0.196728
v 0.499089 -0.020000 -0.152033
v 0.489832 -0.020000 -0.109787
v 0.068843 -0.020000 -0.196728
v 0.073461 -0.020000 -0.152033
v 0.082719 -0.020000 -0.109787
v 0.141199 -0.020000 -0.195909
v 0.143422 -0.020000 -0.149455
v 0.147366 -0.020000 -0.103738
v 0.213695 -0.020000 -0.195376
v 0.214510 -0.020000 -0.148002
v 0.215764 -0.020000 -0.100720
v 0.082719 -0.020000 -0.375824
v 0.073461 -0.020000 -0.333579
v 0.068843 -0.020000 -0.288883
v 0.147366 -0.020000 -0.381874
v 0.143422 -0.020000 -0.336156
v 0.141199 -0.020000 -0.289702
v 0.215764 -0.020000 -0.384891
v 0.214510 -0.020000 -0.337609
v 0.213695 -0.020000 -0.290235
v 0.356787 -0.020000 -0.384891
v 0.358040 -0.020000 -0.337609
v 0.358856 -0.020000 -0.290235
v 0.425184 -0.020000 -0.381874
v 0.429129 -0.020000 -0.336156
v 0.431352 -0.020000 -0.289702
v 0.489832 -0.020000 -0.375824
v 0.499089 -0.020000 -0.333579
v 0.503707 -0.020000 -0.288883
vn -0.0000 1.0000 -0.0000
vn -0.0000 -1.0000 -0.0000
vn -0.9992 -0.0000 0.0391
vn -0.9843 -0.0000 0.1763
vn -0.9101 -0.0000 0.4143
vn -0.7146 -0.0000 0.6995
vn 0.0167 -0.0000 0.9999
vn 0.0763 -0.0000 0.9971
vn 0.1908 -0.0000 0.9816
vn 0.3857 -0.0000 0.9226
vn 0.9992 -0.0000 -0.0391
vn 0.9843 -0.0000 -0.1763
vn 0.9101 -0.0000 -0.4143
vn 0.7146 -0.0000 -0.6995
vn -0.0167 -0.0000 -0.9999
vn -0.0763 -0.0000 -0.9971
vn -0.1908 -0.0000 -0.9816
vn -0.3857 -0.0000 -0.9226
vn -0.7146 -0.0000 -0.6995
vn -0.9101 -0.0000 -0.4143
vn -0.9843 -0.0000 -0.1763
vn -0.9992 -0.0000 -0.0391
vn -0.3857 -0.0000 0.9226
vn -0.1908 -0.0000 0.9816
vn -0.0763 -0.0000 0.9971
vn -0.0167 -0.0000 0.9999
vn 0.7146 -0.0000 0.6995
vn 0.9101 -0.0000 0.4143
vn 0.9843 -0.0000 0.1763
vn 0.9992 -0.0000 0.0391
vn 0.3857 -0.0000 -0.9226
vn 0.1908 -0.0000 -0.9816
vn 0.0763 -0.0000 -0.9971
vn 0.0167 -0.0000 -0.9999
vt 0.625000 0.625000
vt 0.750000 0.625000
vt 0.750000 0.750000
vt 0.625000 0.750000
vt 0.875000 0.625000
vt 0.875000 0.750000
vt 0.750000 0.875000
vt 0.625000 0.875000
vt 0.875000 0.875000
vt 0.500000 0.500000
vt 0.625000 0.500000
vt 0.500000 0.625000
vt 0.750000 0.500000
vt 0.875000 0.500000
vt 1.000000 0.500000
vt 1.000000 0.625000
vt 1.000000 0.750000
vt 1.000000 0.875000
vt 1.000000 1.000000
vt 0.875000 1.000000
vt 0.750000 1.000000
vt 0.625000 1.000000
vt 0.500000 0.875000
vt 0.500000 1.000000
vt 0.500000 0.750000
vt 0.125000 0.625000
vt 0.250000 0.625000
vt 0.250000 0.750000
vt 0.125000 0.750000
vt 0.375000 0.625000
vt 0.375000 0.750000
vt 0.250000 0.875000
vt 0.125000 0.875000
vt 0.375000 0.875000
vt 0.000000 0.500000
vt 0.125000 0.500000
vt 0.000000 0.625000
vt 0.250000 0.500000
vt 0.375000 0.500000
vt 0.375000 1.000000
vt 0.250000 1.000000
vt 0.125000 1.000000
vt 0.000000 0.875000
vt 0.000000 1.000000
vt 0.000000 0.750000
vt 0.125000 0.125000
vt 0.250000 0.125000
vt 0.250000 0.250000
vt 0.125000 0.250000
vt 0.375000 0.125000
vt 0.375000 0.250000
vt 0.250000 0.375000
vt 0.125000 0.375000
vt 0.375000 0.375000
vt 0.000000 0.000000
vt 0.125000 0.000000
vt 0.000000 0.125000
vt 0.250000 0.000000
vt 0.375000 0.000000
vt 0.500000 0.000000
vt 0.500000 0.125000
vt 0.500000 0.250000
vt 0.500000 0.375000
vt 0.000000 0.375000
vt 0.000000 0.250000
vt 0.625000 0.125000
vt 0.750000 0.125000
vt 0.750000 0.250000
vt 0.625000 0.250000
vt 0.875000 0.125000
vt 0.875000 0.250000
vt 0.750000 0.375000
vt 0.625000 0.375000
vt 0.875000 0.375000
vt 0.625000 0.000000
vt 0.750000 0.000000
vt 0.875000 0.000000
vt 1.000000 0.000000
vt 1.000000 0.125000
vt 1.000000 0.250000
vt 1.000000 0.375000
vt 0.625000 0.625000
vt 0.625000 0.750000
vt 0.750000 0.625000
vt 0.625000 0.875000
vt 0.750000 0.875000
vt 0.875000 0.750000
vt 0.875000 0.625000
vt 0.500000 0.625000
vt 0.625000 0.500000
vt 0.125000 0.625000
vt 0.125000 0.750000
vt 0.250000 0.625000
vt 0.125000 0.875000
vt 0.250000 0.875000
vt 0.375000 0.750000
vt 0.375000 0.625000
vt 0.125000 0.500000
vt 0.375000 0.500000
vt 0.250000 0.500000
vt 0.125000 0.125000
vt 0.125000 0.250000
vt 0.250000 0.250000
vt 0.250000 0.125000
vt 0.125000 0.375000
vt 0.250000 0.375000
vt 0.375000 0.250000
vt 0.375000 0.125000
vt 0.500000 0.375000
vt 0.500000 0.250000
vt 0.500000 0.125000
vt 0.625000 0.125000
vt 0.625000 0.250000
vt 0.750000 0.125000
vt 0.625000 0.375000
vt 0.750000 0.375000
vt 0.875000 0.250000
vt 0.875000 0.125000
s 0
usemtl Alpha_Footprint
f 91/1/1 92/2/1 95/3/1 94/4/1
f 92/2/1 93/5/1 96/6/1 95/3/1
f 94/4/1 95/3/1 98/7/1 97/8/1
f 95/3/1 96/6/1 99/9/1 98/7/1
f 9/10/1 54/11/1 91/1/1 43/12/1
f 54/11/1 53/13/1 92/2/1 91/1/1
f 53/13/1 52/14/1 93/5/1 92/2/1
f 52/14/1 7/15/1 25/16/1 93/5/1
f 93/5/1 25/16/1 26/17/1 96/6/1
f 96/6/1 26/17/1 27/18/1 99/9/1
f 99/9/1 27/18/1 4/19/1 40/20/1
f 98/7/1 99/9/1 40/20/1 41/21/1
f 97/8/1 98/7/1 41/21/1 42/22/1
f 45/23/1 97/8/1 42/22/1 8/24/1
f 44/25/1 94/4/1 97/8/1 45/23/1
f 43/12/1 91/1/1 94/4/1 44/25/1
f 100/26/1 101/27/1 104/28/1 103/29/1
f 101/27/1 102/30/1 105/31/1 104/28/1
f 103/29/1 104/28/1 107/32/1 106/33/1
f 104/28/1 105/31/1 108/34/1 107/32/1
f 5/35/1 51/36/1 100/26/1 33/37/1
f 51/36/1 50/38/1 101/27/1 100/26/1
f 50/38/1 49/39/1 102/30/1 101/27/1
f 49/39/1 9/10/1 43/12/1 102/30/1
f 102/30/1 43/12/1 44/25/1 105/31/1
f 105/31/1 44/25/1 45/23/1 108/34/1
f 108/34/1 45/23/1 8/24/1 28/40/1
f 107/32/1 108/34/1 28/40/1 29/41/1
f 106/33/1 107/32/1 29/41/1 30/42/1
f 31/43/1 106/33/1 30/42/1 3/44/1
f 32/45/1 103/29/1 106/33/1 31/43/1
f 33/37/1 100/26/1 103/29/1 32/45/1
f 109/46/1 110/47/1 113/48/1 112/49/1
f 110/47/1 111/50/1 114/51/1 113/48/1
f 112/49/1 113/48/1 116/52/1 115/53/1
f 113/48/1 114/51/1 117/54/1 116/52/1
f 1/55/1 34/56/1 109/46/1 21/57/1
f 34/56/1 35/58/1 110/47/1 109/46/1
f 35/58/1 36/59/1 111/50/1 110/47/1
f 36/59/1 6/60/1 46/61/1 111/50/1
f 111/50/1 46/61/1 47/62/1 114/51/1
f 114/51/1 47/62/1 48/63/1 117/54/1
f 117/54/1 48/63/1 9/10/1 49/39/1
f 116/52/1 117/54/1 49/39/1 50/38/1
f 115/53/1 116/52/1 50/38/1 51/36/1
f 19/64/1 115/53/1 51/36/1 5/35/1
f 20/65/1 112/49/1 115/53/1 19/64/1
f 21/57/1 109/46/1 112/49/1 20/65/1
f 118/66/1 119/67/1 122/68/1 121/69/1
f 119/67/1 120/70/1 123/71/1 122/68/1
f 121/69/1 122/68/1 125/72/1 124/73/1
f 122/68/1 123/71/1 126/74/1 125/72/1
f 6/60/1 22/75/1 118/66/1 46/61/1
f 22/75/1 23/76/1 119/67/1 118/66/1
f 23/76/1 24/77/1 120/70/1 119/67/1
f 24/77/1 2/78/1 37/79/1 120/70/1
f 120/70/1 37/79/1 38/80/1 123/71/1
f 123/71/1 38/80/1 39/81/1 126/74/1
f 126/74/1 39/81/1 7/15/1 52/14/1
f 125/72/1 126/74/1 52/14/1 53/13/1
f 124/73/1 125/72/1 53/13/1 54/11/1
f 48/63/1 124/73/1 54/11/1 9/10/1
f 47/62/1 121/69/1 124/73/1 48/63/1
f 46/61/1 118/66/1 121/69/1 47/62/1
f 127/82/1 128/83/1 131/3/1 130/84/1
f 128/83/1 129/85/1 132/86/1 131/3/1
f 130/84/1 131/3/1 134/87/1 133/88/1
f 131/3/1 132/86/1 135/9/1 134/87/1
f 18/10/1 79/89/1 127/82/1 90/90/1
f 79/89/1 80/25/1 128/83/1 127/82/1
f 80/25/1 81/23/1 129/85/1 128/83/1
f 81/23/1 17/24/1 78/22/1 129/85/1
f 129/85/1 78/22/1 77/21/1 132/86/1
f 132/86/1 77/21/1 76/20/1 135/9/1
f 135/9/1 76/20/1 13/19/1 63/18/1
f 134/87/1 135/9/1 63/18/1 62/17/1
f 133/88/1 134/87/1 62/17/1 61/16/1
f 88/14/1 133/88/1 61/16/1 16/15/1
f 89/13/1 130/84/1 133/88/1 88/14/1
f 90/90/1 127/82/1 130/84/1 89/13/1
f 136/91/1 137/92/1 140/28/1 139/93/1
f 137/92/1 138/94/1 141/95/1 140/28/1
f 139/93/1 140/28/1 143/96/1 142/97/1
f 140/28/1 141/95/1 144/34/1 143/96/1
f 14/35/1 69/37/1 136/91/1 87/98/1
f 69/37/1 68/45/1 137/92/1 136/91/1
f 68/45/1 67/43/1 138/94/1 137/92/1
f 67/43/1 12/44/1 66/42/1 138/94/1
f 138/94/1 66/42/1 65/41/1 141/95/1
f 141/95/1 65/41/1 64/40/1 144/34/1
f 144/34/1 64/40/1 17/24/1 81/23/1
f 143/96/1 144/34/1 81/23/1 80/25/1
f 142/97/1 143/96/1 80/25/1 79/89/1
f 85/99/1 142/97/1 79/89/1 18/10/1
f 86/100/1 139/93/1 142/97/1 85/99/1
f 87/98/1 136/91/1 139/93/1 86/100/1
f 145/101/1 146/102/1 149/103/1 148/104/1
f 146/102/1 147/105/1 150/106/1 149/103/1
f 148/104/1 149/103/1 152/107/1 151/108/1
f 149/103/1 150/106/1 153/54/1 152/107/1
f 10/55/1 57/57/1 145/101/1 70/56/1
f 57/57/1 56/65/1 146/102/1 145/101/1
f 56/65/1 55/64/1 147/105/1 146/102/1
f 55/64/1 14/35/1 87/98/1 147/105/1
f 147/105/1 87/98/1 86/100/1 150/106/1
f 150/106/1 86/100/1 85/99/1 153/54/1
f 153/54/1 85/99/1 18/10/1 84/109/1
f 152/107/1 153/54/1 84/109/1 83/110/1
f 151/108/1 152/107/1 83/110/1 82/111/1
f 72/59/1 151/108/1 82/111/1 15/60/1
f 71/58/1 148/104/1 151/108/1 72/59/1
f 70/56/1 145/101/1 148/104/1 71/58/1
f 154/112/1 155/113/1 158/68/1 157/114/1
f 155/113/1 156/115/1 159/116/1 158/68/1
f 157/114/1 158/68/1 161/117/1 160/118/1
f 158/68/1 159/116/1 162/74/1 161/117/1
f 15/60/1 82/111/1 154/112/1 58/75/1
f 82/111/1 83/110/1 155/113/1 154/112/1
f 83/110/1 84/109/1 156/115/1 155/113/1
f 84/109/1 18/10/1 90/90/1 156/115/1
f 156/115/1 90/90/1 89/13/1 159/116/1
f 159/116/1 89/13/1 88/14/1 162/74/1
f 162/74/1 88/14/1 16/15/1 75/81/1
f 161/117/1 162/74/1 75/81/1 74/80/1
f 160/118/1 161/117/1 74/80/1 73/79/1
f 60/77/1 160/118/1 73/79/1 11/78/1
f 59/76/1 157/114/1 160/118/1 60/77/1
f 58/75/1 154/112/1 157/114/1 59/76/1
f 253/1/2 256/4/2 257/3/2 254/2/2
f 254/2/2 257/3/2 258/6/2 255/5/2
f 256/4/2 259/8/2 260/7/2 257/3/2
f 257/3/2 260/7/2 261/9/2 258/6/2
f 171/10/2 205/12/2 253/1/2 216/11/2
f 216/11/2 253/1/2 254/2/2 215/13/2
f 215/13/2 254/2/2 255/5/2 214/14/2
f 214/14/2 255/5/2 187/16/2 169/15/2
f 255/5/2 258/6/2 188/17/2 187/16/2
f 258/6/2 261/9/2 189/18/2 188/17/2
f 261/9/2 202/20/2 166/19/2 189/18/2
f 260/7/2 203/21/2 202/20/2 261/9/2
f 259/8/2 204/22/2 203/21/2 260/7/2
f 207/23/2 170/24/2 204/22/2 259/8/2
f 206/25/2 207/23/2 259/8/2 256/4/2
f 205/12/2 206/25/2 256/4/2 253/1/2
f 262/26/2 265/29/2 266/28/2 263/27/2
f 263/27/2 266/28/2 267/31/2 264/30/2
f 265/29/2 268/33/2 269/32/2 266/28/2
f 266/28/2 269/32/2 270/34/2 267/31/2
f 167/35/2 195/37/2 262/26/2 213/36/2
f 213/36/2 262/26/2 263/27/2 212/38/2
f 212/38/2 263/27/2 264/30/2 211/39/2
f 211/39/2 264/30/2 205/12/2 171/10/2
f 264/30/2 267/31/2 206/25/2 205/12/2
f 267/31/2 270/34/2 207/23/2 206/25/2
f 270/34/2 190/40/2 170/24/2 207/23/2
f 269/32/2 191/41/2 190/40/2 270/34/2
f 268/33/2 192/42/2 191/41/2 269/32/2
f 193/43/2 165/44/2 192/42/2 268/33/2
f 194/45/2 193/43/2 268/33/2 265/29/2
f 195/37/2 194/45/2 265/29/2 262/26/2
f 271/46/2 274/49/2 275/48/2 272/47/2
f 272/47/2 275/48/2 276/51/2 273/50/2
f 274/49/2 277/53/2 278/52/2 275/48/2
f 275/48/2 278/52/2 279/54/2 276/51/2
f 163/55/2 183/57/2 271/46/2 196/56/2
f 196/56/2 271/46/2 272/47/2 197/58/2
f 197/58/2 272/47/2 273/50/2 198/59/2
f 198/59/2 273/50/2 208/61/2 168/60/2
f 273/50/2 276/51/2 209/62/2 208/61/2
f 276/51/2 279/54/2 210/63/2 209/62/2
f 279/54/2 211/39/2 171/10/2 210/63/2
f 278/52/2 212/38/2 211/39/2 279/54/2
f 277/53/2 213/36/2 212/38/2 278/52/2
f 181/64/2 167/35/2 213/36/2 277/53/2
f 182/65/2 181/64/2 277/53/2 274/49/2
f 183/57/2 182/65/2 274/49/2 271/46/2
f 280/66/2 283/69/2 284/68/2 281/67/2
f 281/67/2 284/68/2 285/71/2 282/70/2
f 283/69/2 286/73/2 287/72/2 284/68/2
f 284/68/2 287/72/2 288/74/2 285/71/2
f 168/60/2 208/61/2 280/66/2 184/75/2
f 184/75/2 280/66/2 281/67/2 185/76/2
f 185/76/2 281/67/2 282/70/2 186/77/2
f 186/77/2 282/70/2 199/79/2 164/78/2
f 282/70/2 285/71/2 200/80/2 199/79/2
f 285/71/2 288/74/2 201/81/2 200/80/2
f 288/74/2 214/14/2 169/15/2 201/81/2
f 287/72/2 215/13/2 214/14/2 288/74/2
f 286/73/2 216/11/2 215/13/2 287/72/2
f 210/63/2 171/10/2 216/11/2 286/73/2
f 209/62/2 210/63/2 286/73/2 283/69/2
f 208/61/2 209/62/2 283/69/2 280/66/2
f 289/82/2 292/84/2 293/3/2 290/83/2
f 290/83/2 293/3/2 294/86/2 291/85/2
f 292/84/2 295/88/2 296/87/2 293/3/2
f 293/3/2 296/87/2 297/9/2 294/86/2
f 180/10/2 252/90/2 289/82/2 241/89/2
f 241/89/2 289/82/2 290/83/2 242/25/2
f 242/25/2 290/83/2 291/85/2 243/23/2
f 243/23/2 291/85/2 240/22/2 179/24/2
f 291/85/2 294/86/2 239/21/2 240/22/2
f 294/86/2 297/9/2 238/20/2 239/21/2
f 297/9/2 225/18/2 175/19/2 238/20/2
f 296/87/2 224/17/2 225/18/2 297/9/2
f 295/88/2 223/16/2 224/17/2 296/87/2
f 250/14/2 178/15/2 223/16/2 295/88/2
f 251/13/2 250/14/2 295/88/2 292/84/2
f 252/90/2 251/13/2 292/84/2 289/82/2
f 298/91/2 301/93/2 302/28/2 299/92/2
f 299/92/2 302/28/2 303/95/2 300/94/2
f 301/93/2 304/97/2 305/96/2 302/28/2
f 302/28/2 305/96/2 306/34/2 303/95/2
f 176/35/2 249/98/2 298/91/2 231/37/2
f 231/37/2 298/91/2 299/92/2 230/45/2
f 230/45/2 299/92/2 300/94/2 229/43/2
f 229/43/2 300/94/2 228/42/2 174/44/2
f 300/94/2 303/95/2 227/41/2 228/42/2
f 303/95/2 306/34/2 226/40/2 227/41/2
f 306/34/2 243/23/2 179/24/2 226/40/2
f 305/96/2 242/25/2 243/23/2 306/34/2
f 304/97/2 241/89/2 242/25/2 305/96/2
f 247/99/2 180/10/2 241/89/2 304/97/2
f 248/100/2 247/99/2 304/97/2 301/93/2
f 249/98/2 248/100/2 301/93/2 298/91/2
f 307/101/2 310/104/2 311/103/2 308/102/2
f 308/102/2 311/103/2 312/106/2 309/105/2
f 310/104/2 313/108/2 314/107/2 311/103/2
f 311/103/2 314/107/2 315/54/2 312/106/2
f 172/55/2 232/56/2 307/101/2 219/57/2
f 219/57/2 307/101/2 308/102/2 218/65/2
f 218/65/2 308/102/2 309/105/2 217/64/2
f 217/64/2 309/105/2 249/98/2 176/35/2
f 309/105/2 312/106/2 248/100/2 249/98/2
f 312/106/2 315/54/2 247/99/2 248/100/2
f 315/54/2 246/109/2 180/10/2 247/99/2
f 314/107/2 245/110/2 246/109/2 315/54/2
f 313/108/2 244/111/2 245/110/2 314/107/2
f 234/59/2 177/60/2 244/111/2 313/108/2
f 233/58/2 234/59/2 313/108/2 310/104/2
f 232/56/2 233/58/2 310/104/2 307/101/2
f 316/112/2 319/114/2 320/68/2 317/113/2
f 317/113/2 320/68/2 321/116/2 318/115/2
f 319/114/2 322/118/2 323/117/2 320/68/2
f 320/68/2 323/117/2 324/74/2 321/116/2
f 177/60/2 220/75/2 316/112/2 244/111/2
f 244/111/2 316/112/2 317/113/2 245/110/2
f 245/110/2 317/113/2 318/115/2 246/109/2
f 246/109/2 318/115/2 252/90/2 180/10/2
f 318/115/2 321/116/2 251/13/2 252/90/2
f 321/116/2 324/74/2 250/14/2 251/13/2
f 324/74/2 237/81/2 178/15/2 250/14/2
f 323/117/2 236/80/2 237/81/2 324/74/2
f 322/118/2 235/79/2 236/80/2 323/117/2
f 222/77/2 173/78/2 235/79/2 322/118/2
f 221/76/2 222/77/2 322/118/2 319/114/2
f 220/75/2 221/76/2 319/114/2 316/112/2
f 19/64/3 5/35/3 167/35/3 181/64/3
f 20/65/4 19/64/4 181/64/4 182/65/4
f 21/57/5 20/65/5 182/65/5 183/57/5
f 1/55/6 21/57/6 183/57/6 163/55/6
f 22/75/7 6/60/7 168/60/7 184/75/7
f 23/76/8 22/75/8 184/75/8 185/76/8
f 24/77/9 23/76/9 185/76/9 186/77/9
f 2/78/10 24/77/10 186/77/10 164/78/10
f 25/16/11 7/15/11 169/15/11 187/16/11
f 26/17/12 25/16/12 187/16/12 188/17/12
f 27/18/13 26/17/13 188/17/13 189/18/13
f 4/19/14 27/18/14 189/18/14 166/19/14
f 28/40/15 8/24/15 170/24/15 190/40/15
f 29/41/16 28/40/16 190/40/16 191/41/16
f 30/42/17 29/41/17 191/41/17 192/42/17
f 3/44/18 30/42/18 192/42/18 165/44/18
f 31/43/19 3/44/19 165/44/19 193/43/19
f 32/45/20 31/43/20 193/43/20 194/45/20
f 33/37/21 32/45/21 194/45/21 195/37/21
f 5/35/22 33/37/22 195/37/22 167/35/22
f 34/56/23 1/55/23 163/55/23 196/56/23
f 35/58/24 34/56/24 196/56/24 197/58/24
f 36/59/25 35/58/25 197/58/25 198/59/25
f 6/60/26 36/59/26 198/59/26 168/60/26
f 37/79/27 2/78/27 164/78/27 199/79/27
f 38/80/28 37/79/28 199/79/28 200/80/28
f 39/81/29 38/80/29 200/80/29 201/81/29
f 7/15/30 39/81/30 201/81/30 169/15/30
f 40/20/31 4/19/31 166/19/31 202/20/31
f 41/21/32 40/20/32 202/20/32 203/21/32
f 42/22/33 41/21/33 203/21/33 204/22/33
f 8/24/34 42/22/34 204/22/34 170/24/34
f 14/35/22 55/64/22 217/64/22 176/35/22
f 55/64/21 56/65/21 218/65/21 217/64/21
f 56/65/20 57/57/20 219/57/20 218/65/20
f 57/57/19 10/55/19 172/55/19 219/57/19
f 15/60/34 58/75/34 220/75/34 177/60/34
f 58/75/33 59/76/33 221/76/33 220/75/33
f 59/76/32 60/77/32 222/77/32 221/76/32
f 60/77/31 11/78/31 173/78/31 222/77/31
f 16/15/30 61/16/30 223/16/30 178/15/30
f 61/16/29 62/17/29 224/17/29 223/16/29
f 62/17/28 63/18/28 225/18/28 224/17/28
f 63/18/27 13/19/27 175/19/27 225/18/27
f 17/24/26 64/40/26 226/40/26 179/24/26
f 64/40/25 65/41/25 227/41/25 226/40/25
f 65/41/24 66/42/24 228/42/24 227/41/24
f 66/42/23 12/44/23 174/44/23 228/42/23
f 12/44/6 67/43/6 229/43/6 174/44/6
f 67/43/5 68/45/5 230/45/5 229/43/5
f 68/45/4 69/37/4 231/37/4 230/45/4
f 69/37/3 14/35/3 176/35/3 231/37/3
f 10/55/18 70/56/18 232/56/18 172/55/18
f 70/56/17 71/58/17 233/58/17 232/56/17
f 71/58/16 72/59/16 234/59/16 233/58/16
f 72/59/15 15/60/15 177/60/15 234/59/15
f 11/78/14 73/79/14 235/79/14 173/78/14
f 73/79/13 74/80/13 236/80/13 235/79/13
f 74/80/12 75/81/12 237/81/12 236/80/12
f 75/81/11 16/15/11 178/15/11 237/81/11
f 13/19/10 76/20/10 238/20/10 175/19/10
f 76/20/9 77/21/9 239/21/9 238/20/9
f 77/21/8 78/22/8 240/22/8 239/21/8
f 78/22/7 17/24/7 179/24/7 240/22/7
