# Blender 4.4.0
# www.blender.org
mtllib Platform.mtl
o Cube
v -0.652652 -0.257001 0.652652
v -0.181922 0.225721 0.079721
v 0.079721 0.225721 0.181922
v -0.513322 0.257001 0.513322
v -0.652652 -0.257001 -0.652652
v 0.181922 0.225721 -0.079721
v -0.079721 0.225721 -0.181922
v -0.513322 0.257001 -0.513322
v -0.181922 0.225721 -0.079721
v 0.652652 -0.257001 0.652652
v 0.513322 0.257001 0.513322
v -0.079721 0.225721 0.181922
v 0.652652 -0.257001 -0.652652
v 0.181922 0.225721 0.079721
v 0.079721 0.225721 -0.181922
v 0.513322 0.257001 -0.513322
v -0.708640 -0.294535 -0.708640
v -0.234786 0.225721 0.102887
v 0.102887 0.225721 0.234786
v -0.708640 -0.294535 0.708640
v -0.708640 0.294535 0.708640
v 0.234786 0.225721 -0.102887
v -0.102887 0.225721 -0.234786
v -0.708640 0.294535 -0.708640
v 0.708640 -0.294535 -0.708640
v -0.234786 0.225721 -0.102887
v 0.708640 0.294535 -0.708640
v -0.102887 0.225721 0.234786
v 0.708640 -0.294535 0.708640
v 0.234786 0.225721 0.102887
v 0.708640 0.294535 0.708640
v 0.102887 0.225721 -0.234786
v -1.000000 -0.239047 -1.000000
v -0.208354 0.225721 0.091304
v -0.944511 -0.294535 -0.944511
v -0.091304 0.225721 0.208354
v -0.944511 -0.294535 0.944511
v 0.091304 0.225721 0.208354
v 0.208354 0.225721 0.091304
v -1.000000 -0.239047 1.000000
v -1.000000 0.239047 1.000000
v 0.208354 0.225721 -0.091304
v -0.944511 0.294535 0.944511
v 0.091304 0.225721 -0.208354
v -0.944511 0.294535 -0.944511
v -0.091304 0.225721 -0.208354
v -1.000000 0.239047 -1.000000
v -0.208354 0.225721 -0.091304
v 1.000000 -0.239047 -1.000000
v -0.116364 0.225721 0.160000
v 0.944511 -0.294535 -0.944511
v -0.160000 0.225721 0.116364
v 0.160000 0.225721 0.116364
v 0.944511 0.294535 -0.944511
v 1.000000 0.239047 -1.000000
v 0.116364 0.225721 0.160000
v 1.000000 -0.239047 1.000000
v -0.160000 0.225721 -0.116364
v 0.944511 -0.294535 0.944511
v -0.116364 0.225721 -0.160000
v 0.944511 0.294535 0.944511
v 0.116364 0.225721 -0.160000
v 1.000000 0.239047 1.000000
v 0.160000 0.225721 -0.116364
v -0.201746 0.225721 0.158111
v -0.652652 0.257001 0.652652
v -0.652652 0.257001 -0.652652
v -0.158111 0.225721 0.201746
v 0.158111 0.225721 0.201746
v 0.652652 0.257001 -0.652652
v 0.201746 0.225721 0.158111
v 0.652652 0.257001 0.652652
v -0.158111 0.225721 -0.201746
v -0.601088 0.257001 0.601088
v -0.201746 0.225721 -0.158111
v -0.601088 0.257001 -0.601088
v 0.201746 0.225721 -0.158111
v 0.601088 0.257001 -0.601088
v 0.158111 0.225721 -0.201746
v 0.601088 0.257001 0.601088
v -0.180873 0.225721 -0.137238
v -0.563081 0.248771 0.563081
v -0.563081 0.248771 -0.563081
v -0.137238 0.225721 -0.180873
v 0.563081 0.248771 -0.563081
v 0.137238 0.225721 -0.180873
v 0.180873 0.225721 -0.137238
v 0.563081 0.248771 0.563081
v 0.180873 0.225721 0.137238
v 0.137238 0.225721 0.180873
v -0.137238 0.225721 0.180873
v -0.180873 0.225721 0.137238
v -0.282712 0.225721 0.022815
v -0.282712 0.225721 -0.022815
v 0.022815 0.225721 0.282712
v -0.022815 0.225721 0.282712
v 0.282712 0.225721 -0.022815
v 0.282712 0.225721 0.022815
v -0.022815 0.225721 -0.282712
v 0.022815 0.225721 -0.282712
v -0.376605 0.225721 -0.022815
v -0.376605 0.225721 0.022815
v -0.022815 0.225721 0.376605
v 0.022815 0.225721 0.376605
v 0.376605 0.225721 0.022815
v 0.376605 0.225721 -0.022815
v 0.022815 0.225721 -0.376605
v -0.022815 0.225721 -0.376605
v -0.329658 0.225721 -0.022815
v -0.329658 0.225721 0.022815
v -0.022815 0.225721 -0.329658
v 0.022815 0.225721 -0.329658
v 0.329658 0.225721 -0.022815
v 0.329658 0.225721 0.022815
v 0.022815 0.225721 0.329658
v -0.022815 0.225721 0.329658
v -0.266982 0.225721 -0.223347
v -0.223347 0.225721 -0.266982
v -0.358111 0.225721 -0.401746
v -0.401746 0.225721 -0.358111
v -0.380873 0.225721 -0.337238
v -0.337238 0.225721 -0.380873
v 0.221883 0.225721 -0.266982
v 0.265518 0.225721 -0.223347
v 0.400282 0.225721 -0.358111
v 0.356647 0.225721 -0.401746
v 0.335774 0.225721 -0.380873
v 0.379409 0.225721 -0.337238
v 0.265518 0.225721 0.223020
v 0.221883 0.225721 0.266655
v 0.356647 0.225721 0.401419
v 0.400282 0.225721 0.357784
v 0.379409 0.225721 0.336911
v 0.335774 0.225721 0.380546
v -0.223347 0.225721 0.266655
v -0.266982 0.225721 0.223020
v -0.401746 0.225721 0.357784
v -0.358111 0.225721 0.401419
v -0.337238 0.225721 0.380546
v -0.380873 0.225721 0.336911
v -0.379765 0.257001 0.379765
v -0.380873 0.257001 0.336911
v -0.401746 0.257001 0.357784
v -0.376605 0.257001 0.022815
v -0.337238 0.257001 -0.380873
v -0.368610 0.257001 -0.391247
v -0.358111 0.257001 -0.401746
v -0.376605 0.257001 -0.022815
v -0.401746 0.257001 -0.358111
v -0.380873 0.257001 -0.337238
v -0.282712 0.257001 -0.022815
v -0.266982 0.257001 -0.223347
v -0.181922 0.257001 0.079721
v -0.181922 0.257001 -0.079721
v -0.234786 0.257001 0.102887
v -0.266982 0.257001 0.223020
v -0.245001 0.257001 0.245001
v -0.201746 0.257001 0.158111
v -0.282712 0.257001 0.022815
v -0.234786 0.257001 -0.102887
v -0.201746 0.257001 -0.158111
v -0.223347 0.257001 -0.266982
v -0.160000 0.257001 0.116364
v -0.160000 0.257001 -0.116364
v -0.116364 0.257001 -0.160000
v -0.158111 0.257001 -0.201746
v -0.079721 0.257001 -0.181922
v -0.102887 0.257001 -0.234786
v -0.022815 0.257001 -0.282712
v -0.022815 0.257001 -0.376605
v 0.022815 0.257001 -0.282712
v 0.116364 0.257001 -0.160000
v 0.102887 0.257001 -0.234786
v 0.079721 0.257001 -0.181922
v 0.244433 0.257001 -0.244433
v 0.179929 0.257001 -0.179929
v 0.158111 0.257001 -0.201746
v 0.221883 0.257001 -0.266982
v 0.356647 0.257001 -0.401746
v 0.335774 0.257001 -0.380873
v 0.022815 0.257001 -0.376605
v -0.179929 0.257001 0.179929
v -0.358111 0.257001 0.401419
v -0.337238 0.257001 0.380546
v -0.223347 0.257001 0.266655
v -0.158111 0.257001 0.201746
v -0.116364 0.257001 0.160000
v -0.102887 0.257001 0.234786
v -0.079721 0.257001 0.181922
v -0.022815 0.257001 0.282712
v -0.022815 0.257001 0.376605
v 0.022815 0.257001 0.282712
v 0.102887 0.257001 0.234786
v 0.022815 0.257001 0.376605
v 0.116364 0.257001 0.160000
v 0.158111 0.257001 0.201746
v 0.160000 0.257001 0.116364
v 0.160000 0.257001 -0.116364
v 0.079721 0.257001 0.181922
v 0.181922 0.257001 -0.079721
v 0.181922 0.257001 0.079721
v 0.282712 0.257001 0.022815
v 0.265518 0.257001 0.223020
v 0.234786 0.257001 0.102887
v 0.221883 0.257001 0.266655
v 0.201746 0.257001 0.158111
v 0.234786 0.257001 -0.102887
v 0.265518 0.257001 -0.223347
v 0.201746 0.257001 -0.158111
v 0.356647 0.257001 0.401419
v 0.335774 0.257001 0.380546
v 0.379409 0.257001 -0.337238
v 0.376605 0.257001 -0.022815
v 0.400282 0.257001 -0.358111
v 0.400282 0.257001 0.357784
v 0.379409 0.257001 0.336911
v 0.376605 0.257001 0.022815
v 0.282712 0.257001 -0.022815
v -0.148715 -0.065877 1.058529
v -0.173579 -0.090740 1.033665
v -0.148715 0.065877 1.058529
v -0.173579 0.090740 1.033665
v -0.148715 -0.065877 0.877048
v -0.173579 -0.090740 0.901912
v -0.148715 0.065877 0.877048
v -0.173579 0.090740 0.901912
v 0.148715 -0.065877 1.058529
v 0.173579 -0.090740 1.033665
v 0.148715 0.065877 1.058529
v 0.173579 0.090740 1.033665
v 0.148715 -0.065877 0.877048
v 0.173579 -0.090740 0.901912
v 0.173579 0.090740 0.901912
v 0.148715 0.065877 0.877048
v -0.556131 0.002491 1.058529
v -0.580994 -0.022373 1.033665
v -0.556131 0.134245 1.058529
v -0.580994 0.159108 1.033665
v -0.556131 0.002491 0.877048
v -0.580994 -0.022373 0.901912
v -0.556131 0.134245 0.877048
v -0.580994 0.159108 0.901912
v -0.258701 0.002491 1.058529
v -0.233837 -0.022373 1.033665
v -0.258701 0.134245 1.058529
v -0.233837 0.159108 1.033665
v -0.258701 0.002491 0.877048
v -0.233837 -0.022373 0.901912
v -0.233837 0.159108 0.901912
v -0.258701 0.134245 0.877048
v -0.868735 -0.102712 0.415525
v -0.893598 -0.127575 0.440389
v -0.868735 0.029042 0.415525
v -0.893598 0.053906 0.440389
v -1.050216 -0.102712 0.415525
v -1.025352 -0.127575 0.440389
v -1.050216 0.029042 0.415525
v -1.025352 0.053906 0.440389
v -0.868735 -0.102712 0.118095
v -0.893598 -0.127575 0.093231
v -0.868735 0.029042 0.118095
v -0.893598 0.053906 0.093231
v -1.050216 -0.102712 0.118095
v -1.025352 -0.127575 0.093231
v -1.025352 0.053906 0.093231
v -1.050216 0.029042 0.118095
v -0.868735 -0.034344 0.822941
v -0.893598 -0.059208 0.847805
v -0.868735 0.097410 0.822941
v -0.893598 0.122273 0.847805
v -1.050215 -0.034344 0.822941
v -1.025352 -0.059208 0.847805
v -1.050215 0.097410 0.822941
v -1.025352 0.122273 0.847805
v -0.868735 -0.034344 0.525511
v -0.893598 -0.059208 0.500647
v -0.868735 0.097410 0.525511
v -0.893598 0.122273 0.500647
v -1.050215 -0.034344 0.525511
v -1.025352 -0.059208 0.500647
v -1.025352 0.122273 0.500647
v -1.050215 0.097410 0.525511
v -0.868735 -0.102712 -0.425298
v -0.893598 -0.127575 -0.400435
v -0.868735 0.029042 -0.425298
v -0.893598 0.053906 -0.400435
v -1.050216 -0.102712 -0.425298
v -1.025352 -0.127575 -0.400435
v -1.050216 0.029042 -0.425298
v -1.025352 0.053906 -0.400435
v -0.868735 -0.102712 -0.722728
v -0.893598 -0.127575 -0.747592
v -0.868735 0.029042 -0.722728
v -0.893598 0.053906 -0.747592
v -1.050216 -0.102712 -0.722728
v -1.025352 -0.127575 -0.747592
v -1.025352 0.053906 -0.747592
v -1.050216 0.029042 -0.722728
v 0.404599 -0.094675 -1.061055
v 0.429462 -0.119539 -1.036192
v 0.404599 0.037079 -1.061055
v 0.429462 0.061942 -1.036192
v 0.404599 -0.094675 -0.879575
v 0.429462 -0.119539 -0.904438
v 0.404599 0.037079 -0.879575
v 0.429462 0.061942 -0.904438
v 0.107169 -0.094675 -1.061055
v 0.082305 -0.119539 -1.036192
v 0.107169 0.037079 -1.061055
v 0.082305 0.061942 -1.036192
v 0.107169 -0.094675 -0.879575
v 0.082305 -0.119539 -0.904438
v 0.082305 0.061942 -0.904438
v 0.107169 0.037079 -0.879575
v 0.035522 -0.026307 -1.061055
v 0.060386 -0.051171 -1.036192
v 0.035522 0.105446 -1.061055
v 0.060386 0.130310 -1.036192
v 0.035522 -0.026307 -0.879575
v 0.060386 -0.051171 -0.904438
v 0.035522 0.105446 -0.879575
v 0.060386 0.130310 -0.904438
v -0.261908 -0.026307 -1.061055
v -0.286772 -0.051171 -1.036192
v -0.261908 0.105446 -1.061055
v -0.286772 0.130310 -1.036192
v -0.261908 -0.026307 -0.879575
v -0.286772 -0.051171 -0.904438
v -0.286772 0.130310 -0.904438
v -0.261908 0.105446 -0.879575
v -0.436225 -0.094675 -1.061055
v -0.411361 -0.119539 -1.036192
v -0.436225 0.037079 -1.061055
v -0.411361 0.061942 -1.036192
v -0.436225 -0.094675 -0.879575
v -0.411361 -0.119539 -0.904438
v -0.436225 0.037079 -0.879575
v -0.411361 0.061942 -0.904438
v -0.733655 -0.094675 -1.061055
v -0.758518 -0.119539 -1.036192
v -0.733655 0.037079 -1.061055
v -0.758518 0.061942 -1.036192
v -0.733655 -0.094675 -0.879575
v -0.758518 -0.119539 -0.904438
v -0.758518 0.061942 -0.904438
v -0.733655 0.037079 -0.879575
v 0.873697 -0.008280 -0.562489
v 0.898560 -0.033144 -0.587352
v 0.873697 0.123473 -0.562489
v 0.898560 0.148337 -0.587352
v 1.055177 -0.008280 -0.562489
v 1.030314 -0.033144 -0.587352
v 1.055177 0.123473 -0.562489
v 1.030314 0.148337 -0.587352
v 0.873697 -0.008280 -0.265059
v 0.898560 -0.033144 -0.240195
v 0.873697 0.123473 -0.265059
v 0.898560 0.148337 -0.240195
v 1.055177 -0.008280 -0.265059
v 1.030314 -0.033144 -0.240195
v 1.030314 0.148337 -0.240195
v 1.055177 0.123473 -0.265059
v 0.873697 -0.191115 -0.351525
v 0.898560 -0.215979 -0.376389
v 0.873697 -0.059362 -0.351525
v 0.898560 -0.034498 -0.376389
v 1.055177 -0.191115 -0.351525
v 1.030314 -0.215979 -0.376389
v 1.055177 -0.059362 -0.351525
v 1.030314 -0.034498 -0.376389
v 0.873697 -0.191115 -0.054095
v 0.898560 -0.215979 -0.029232
v 0.873697 -0.059362 -0.054095
v 0.898560 -0.034498 -0.029232
v 1.055177 -0.191115 -0.054096
v 1.030314 -0.215979 -0.029232
v 1.030314 -0.034498 -0.029232
v 1.055177 -0.059362 -0.054096
v 0.873697 0.009802 0.486300
v 0.898560 -0.015061 0.461437
v 0.873697 0.141556 0.486300
v 0.898560 0.166419 0.461437
v 1.055177 0.009802 0.486300
v 1.030314 -0.015061 0.461437
v 1.055177 0.141556 0.486300
v 1.030314 0.166419 0.461437
v 0.873697 0.009802 0.783730
v 0.898560 -0.015061 0.808594
v 0.873697 0.141556 0.783730
v 0.898560 0.166419 0.808594
v 1.055177 0.009802 0.783730
v 1.030314 -0.015061 0.808594
v 1.030314 0.166419 0.808594
v 1.055177 0.141556 0.783730
vn -0.0000 -0.0000 -1.0000
vn -0.0000 -1.0000 -0.0000
vn -0.0000 1.0000 -0.0000
vn -1.0000 -0.0000 -0.0000
vn -0.0000 -0.0000 1.0000
vn 1.0000 -0.0000 -0.0000
vn 0.5568 -0.8306 -0.0000
vn 0.5568 0.8306 -0.0000
vn -0.0000 -0.8306 0.5568
vn -0.0000 0.8306 0.5568
vn -0.5568 -0.8306 -0.0000
vn -0.5568 0.8306 -0.0000
vn -0.0000 -0.8306 -0.5568
vn -0.0000 0.8306 -0.5568
vn -0.7071 -0.7071 -0.0000
vn -0.7071 0.7071 -0.0000
vn -0.0000 -0.7071 -0.7071
vn -0.0000 0.7071 -0.7071
vn 0.7071 -0.7071 -0.0000
vn 0.7071 0.7071 -0.0000
vn -0.0000 -0.7071 0.7071
vn -0.0000 0.7071 0.7071
vn 0.2116 0.9774 -0.0000
vn -0.0000 0.9774 0.2116
vn -0.2116 0.9774 -0.0000
vn -0.0000 0.9774 -0.2116
vn -0.1632 0.9866 -0.0000
vn -0.0000 0.9866 -0.1632
vn 0.1632 0.9866 -0.0000
vn -0.0000 0.9866 0.1632
vn -0.7071 -0.0000 -0.7071
vn 0.7071 -0.0000 -0.7071
vn 0.7071 -0.0000 0.7071
vn -0.7071 -0.0000 0.7071
vn -0.8581 -0.0000 0.5134
vn -0.5134 -0.0000 0.8581
vn 0.5134 -0.0000 0.8581
vn 0.8581 -0.0000 0.5134
vn -0.5134 -0.0000 -0.8581
vn -0.8581 -0.0000 -0.5134
vn 0.8581 -0.0000 -0.5134
vn 0.5134 -0.0000 -0.8581
vn -0.4917 -0.0000 -0.8708
vn -0.4917 -0.0000 0.8708
vn -0.8708 -0.0000 0.4917
vn 0.8708 -0.0000 0.4917
vn 0.4917 -0.0000 0.8708
vn 0.4917 -0.0000 -0.8708
vn 0.8708 -0.0000 -0.4917
vn -0.8708 -0.0000 -0.4917
vt 0.073826 0.871566
vt 0.076214 0.871566
vt 0.076214 0.878631
vt 0.073826 0.878631
vt 0.069982 0.880101
vt 0.069982 0.873021
vt 0.071160 0.871843
vt 0.071160 0.881280
vt 0.062902 0.880101
vt 0.061724 0.881280
vt 0.062902 0.873021
vt 0.061724 0.871843
vt 0.174928 0.809351
vt 0.174928 0.821960
vt 0.162320 0.821960
vt 0.162320 0.809351
vt 0.170573 0.836501
vt 0.171203 0.837132
vt 0.170781 0.837553
vt 0.171881 0.838653
vt 0.172083 0.838855
vt 0.172403 0.838535
vt 0.173582 0.839933
vt 0.163665 0.839933
vt 0.164956 0.838643
vt 0.165168 0.838855
vt 0.165369 0.838653
vt 0.166470 0.837553
vt 0.166257 0.837341
vt 0.166886 0.836712
vt 0.167097 0.836923
vt 0.167630 0.837242
vt 0.168403 0.838612
vt 0.168844 0.838612
vt 0.169618 0.837242
vt 0.170151 0.836923
vt 0.166048 0.837132
vt 0.164948 0.838232
vt 0.164746 0.838433
vt 0.163665 0.830016
vt 0.173582 0.830016
vt 0.172504 0.838433
vt 0.172303 0.838232
vt 0.170892 0.835968
vt 0.172262 0.835195
vt 0.172262 0.834754
vt 0.170892 0.833980
vt 0.170573 0.833447
vt 0.170362 0.833236
vt 0.170985 0.832613
vt 0.171203 0.832831
vt 0.172303 0.831731
vt 0.172504 0.831529
vt 0.172083 0.831108
vt 0.171881 0.831309
vt 0.170781 0.832410
vt 0.170151 0.833026
vt 0.169618 0.832706
vt 0.168844 0.831336
vt 0.168403 0.831336
vt 0.167630 0.832706
vt 0.167097 0.833026
vt 0.166470 0.832410
vt 0.165369 0.831309
vt 0.165168 0.831108
vt 0.164746 0.831529
vt 0.164948 0.831731
vt 0.166048 0.832831
vt 0.166675 0.833447
vt 0.166356 0.833980
vt 0.164986 0.834754
vt 0.164986 0.835195
vt 0.166356 0.835968
vt 0.166675 0.836501
vt 0.186124 0.837291
vt 0.185528 0.837291
vt 0.185128 0.837191
vt 0.184051 0.837491
vt 0.183739 0.837179
vt 0.184039 0.836102
vt 0.183939 0.835702
vt 0.183939 0.835106
vt 0.184039 0.834706
vt 0.183739 0.833629
vt 0.184051 0.833317
vt 0.185128 0.833617
vt 0.185528 0.833516
vt 0.186124 0.833516
vt 0.186524 0.833617
vt 0.187601 0.833317
vt 0.187913 0.833629
vt 0.187613 0.834706
vt 0.187714 0.835106
vt 0.187714 0.835702
vt 0.187613 0.836102
vt 0.187913 0.837179
vt 0.187601 0.837491
vt 0.186524 0.837191
vt 0.071437 0.878631
vt 0.071437 0.871566
vt 0.062902 0.883012
vt 0.062902 0.890092
vt 0.061724 0.891271
vt 0.061724 0.881834
vt 0.076214 0.885695
vt 0.073826 0.885695
vt 0.071437 0.885695
vt 0.069982 0.883012
vt 0.071160 0.881834
vt 0.069982 0.890092
vt 0.071160 0.891271
vt 0.161779 0.808810
vt 0.175469 0.808810
vt 0.162320 0.841278
vt 0.174928 0.841278
vt 0.175469 0.841819
vt 0.161779 0.841819
vt 0.175469 0.822500
vt 0.174928 0.828670
vt 0.175469 0.828129
vt 0.161779 0.822500
vt 0.162320 0.828670
vt 0.161779 0.828129
vt 0.061446 0.871566
vt 0.071437 0.891548
vt 0.061446 0.891548
vt 0.071437 0.881557
vt 0.061446 0.881557
vt 0.061446 0.881557
vt 0.162818 0.840780
vt 0.174430 0.840780
vt 0.174430 0.829168
vt 0.162818 0.829168
vt 0.163185 0.840413
vt 0.174063 0.840413
vt 0.174063 0.829535
vt 0.163185 0.829535
vt 0.678666 0.469484
vt 0.678666 0.469234
vt 0.679018 0.469145
vt 0.679107 0.469373
vt 0.676009 0.465454
vt 0.676291 0.465736
vt 0.676607 0.466874
vt 0.676379 0.466785
vt 0.678143 0.465418
vt 0.678143 0.465668
vt 0.677703 0.465779
vt 0.677614 0.465551
vt 0.676564 0.469690
vt 0.676846 0.469408
vt 0.677792 0.469145
vt 0.677703 0.469373
vt 0.676497 0.467838
vt 0.676747 0.467838
vt 0.676835 0.468189
vt 0.676607 0.468278
vt 0.680519 0.469416
vt 0.680237 0.469135
vt 0.679974 0.468189
vt 0.680202 0.468278
vt 0.680313 0.467314
vt 0.680062 0.467314
vt 0.679974 0.466963
vt 0.680202 0.466874
vt 0.680245 0.465462
vt 0.679963 0.465744
vt 0.679018 0.466007
vt 0.679107 0.465779
vt 0.678666 0.465919
vt 0.678666 0.465668
vt 0.679196 0.465551
vt 0.678666 0.465418
vt 0.680526 0.465180
vt 0.680237 0.466017
vt 0.680519 0.465736
vt 0.680430 0.466785
vt 0.680800 0.465454
vt 0.680563 0.467314
vt 0.680062 0.467838
vt 0.680313 0.467838
vt 0.680430 0.468367
vt 0.680563 0.467838
vt 0.680800 0.469698
vt 0.679963 0.469408
vt 0.680245 0.469690
vt 0.679196 0.469601
vt 0.680526 0.469972
vt 0.676246 0.467838
vt 0.676379 0.468367
vt 0.678143 0.469234
vt 0.678143 0.469484
vt 0.677614 0.469601
vt 0.678143 0.469734
vt 0.676283 0.469972
vt 0.676572 0.469135
vt 0.676291 0.469416
vt 0.676009 0.469698
vt 0.676835 0.466963
vt 0.676747 0.467314
vt 0.676497 0.467314
vt 0.676246 0.467314
vt 0.677792 0.466007
vt 0.676846 0.465744
vt 0.676564 0.465462
vt 0.676283 0.465180
vt 0.678666 0.469734
vt 0.678143 0.465919
vt 0.676572 0.466017
vt 0.687165 0.472363
vt 0.686642 0.472363
vt 0.686642 0.470997
vt 0.687165 0.470997
vt 0.687165 0.472614
vt 0.686642 0.472614
vt 0.690800 0.442557
vt 0.690276 0.442557
vt 0.690276 0.441191
vt 0.690800 0.441191
vt 0.690800 0.442807
vt 0.690276 0.442807
vt 0.690276 0.457736
vt 0.690800 0.457736
vt 0.690800 0.459102
vt 0.690276 0.459102
vt 0.690276 0.457486
vt 0.690800 0.457486
vt 0.690542 0.443170
vt 0.691065 0.443170
vt 0.691065 0.444536
vt 0.690542 0.444536
vt 0.690542 0.442919
vt 0.691065 0.442919
vt 0.187548 0.838968
vt 0.187548 0.839564
vt 0.187245 0.839564
vt 0.187245 0.838968
vt 0.187850 0.838968
vt 0.187850 0.839564
vt 0.194714 0.834794
vt 0.195016 0.834794
vt 0.195016 0.835390
vt 0.194714 0.835390
vt 0.194714 0.838656
vt 0.195016 0.838656
vt 0.195016 0.839252
vt 0.194714 0.839252
vt 0.194412 0.835747
vt 0.194714 0.835747
vt 0.194714 0.836343
vt 0.194412 0.836343
vt 0.194531 0.815540
vt 0.194834 0.815540
vt 0.194834 0.816136
vt 0.194531 0.816136
vt 0.194531 0.815838
vt 0.194834 0.810395
vt 0.194834 0.810991
vt 0.194531 0.810991
vt 0.194531 0.810395
vt 0.194834 0.821839
vt 0.194834 0.822435
vt 0.194531 0.822435
vt 0.194531 0.822137
vt 0.194531 0.821839
vt 0.195016 0.838256
vt 0.194714 0.838256
vt 0.195016 0.839652
vt 0.194714 0.839652
vt 0.195016 0.834394
vt 0.194714 0.834394
vt 0.195016 0.835790
vt 0.194714 0.835790
vt 0.187548 0.838568
vt 0.187245 0.838568
vt 0.187548 0.839964
vt 0.187245 0.839964
vt 0.187850 0.838568
vt 0.187850 0.839964
vt 0.194834 0.823038
vt 0.194531 0.823038
vt 0.194834 0.821237
vt 0.194531 0.821237
vt 0.194834 0.811594
vt 0.194531 0.811594
vt 0.194834 0.809792
vt 0.194531 0.809792
vt 0.194714 0.836946
vt 0.194412 0.836946
vt 0.194714 0.835144
vt 0.194412 0.835144
vt 0.194834 0.816739
vt 0.194531 0.816739
vt 0.194834 0.814937
vt 0.194531 0.814937
vt 0.194412 0.833317
vt 0.194714 0.833317
vt 0.194714 0.833629
vt 0.194412 0.833629
vt 0.187850 0.841041
vt 0.187850 0.841353
vt 0.187548 0.841353
vt 0.187548 0.841041
vt 0.194714 0.836867
vt 0.195016 0.836867
vt 0.195016 0.837179
vt 0.194714 0.837179
vt 0.194714 0.840729
vt 0.195016 0.840729
vt 0.195016 0.841041
vt 0.194714 0.841041
vt 0.187245 0.841353
vt 0.187245 0.841041
vt 0.194531 0.813110
vt 0.194834 0.813110
vt 0.194834 0.813421
vt 0.194531 0.813421
vt 0.194834 0.807965
vt 0.194834 0.808277
vt 0.194531 0.808277
vt 0.194531 0.807965
vt 0.194834 0.819409
vt 0.194834 0.819721
vt 0.194531 0.819721
vt 0.194531 0.819409
vt 0.690436 0.468572
vt 0.690702 0.468572
vt 0.690702 0.469517
vt 0.690436 0.469517
vt 0.195016 0.833317
vt 0.187850 0.837491
vt 0.187548 0.837491
vt 0.187245 0.837491
vt 0.690542 0.456155
vt 0.690542 0.457486
vt 0.690276 0.456155
vt 0.194834 0.818254
vt 0.194531 0.818254
vt 0.194714 0.838462
vt 0.194412 0.838462
vt 0.194412 0.838861
vt 0.194714 0.838861
vt 0.194714 0.840417
vt 0.194412 0.840417
vt 0.191328 0.832494
vt 0.191328 0.833090
vt 0.191025 0.833090
vt 0.191025 0.832494
vt 0.194714 0.841973
vt 0.194412 0.841973
vt 0.192778 0.817852
vt 0.193081 0.817852
vt 0.193081 0.818448
vt 0.192778 0.818448
vt 0.192778 0.818305
vt 0.194412 0.838576
vt 0.194714 0.838576
vt 0.194714 0.842258
vt 0.194412 0.842258
vt 0.195136 0.813597
vt 0.195136 0.815153
vt 0.194834 0.815153
vt 0.194834 0.813597
vt 0.192234 0.832494
vt 0.192234 0.833090
vt 0.191932 0.833090
vt 0.191932 0.832782
vt 0.191932 0.832494
vt 0.195318 0.833317
vt 0.195318 0.834873
vt 0.195016 0.834873
vt 0.192536 0.832494
vt 0.192536 0.833090
vt 0.195136 0.813312
vt 0.194834 0.813312
vt 0.195318 0.835158
vt 0.195016 0.835158
vt 0.195136 0.815438
vt 0.195136 0.816994
vt 0.194834 0.816994
vt 0.194834 0.815438
vt 0.191630 0.832494
vt 0.191630 0.833090
vt 0.195136 0.819409
vt 0.195136 0.820965
vt 0.194834 0.820965
vt 0.193081 0.819044
vt 0.192778 0.819044
vt 0.195136 0.821250
vt 0.194834 0.821250
vt 0.194834 0.821535
vt 0.195136 0.821535
vt 0.195136 0.823091
vt 0.194834 0.823091
vt 0.191630 0.832794
vt 0.195136 0.818550
vt 0.194834 0.818550
vt 0.192838 0.832494
vt 0.192838 0.833090
vt 0.192536 0.832789
vt 0.195136 0.818835
vt 0.194834 0.818835
vt 0.198187 0.857660
vt 0.199460 0.857660
vt 0.199460 0.859691
vt 0.198187 0.859691
vt 0.197947 0.874579
vt 0.197947 0.872826
vt 0.198847 0.872826
vt 0.198847 0.874579
vt 0.195954 0.853899
vt 0.195954 0.857253
vt 0.194681 0.857253
vt 0.194681 0.853899
vt 0.190661 0.886165
vt 0.190661 0.884412
vt 0.191561 0.884412
vt 0.191561 0.886165
vt 0.196828 0.877867
vt 0.198101 0.877867
vt 0.198101 0.879899
vt 0.196828 0.879899
vt 0.199700 0.860031
vt 0.197947 0.860031
vt 0.191901 0.884652
vt 0.191901 0.885925
vt 0.195954 0.877373
vt 0.195954 0.874019
vt 0.196194 0.874260
vt 0.196194 0.877133
vt 0.196194 0.854140
vt 0.196194 0.857013
vt 0.198341 0.880238
vt 0.196588 0.880238
vt 0.199187 0.873066
vt 0.199187 0.874339
vt 0.194681 0.874019
vt 0.194681 0.877373
vt 0.194441 0.877133
vt 0.194441 0.874260
vt 0.194441 0.857013
vt 0.194441 0.854140
vt 0.198187 0.860031
vt 0.199460 0.860031
vt 0.199460 0.862062
vt 0.198187 0.862062
vt 0.197947 0.876332
vt 0.198847 0.876332
vt 0.196348 0.877867
vt 0.196348 0.881220
vt 0.195075 0.881220
vt 0.195075 0.877867
vt 0.193082 0.886244
vt 0.193082 0.884491
vt 0.193982 0.884491
vt 0.193982 0.886244
vt 0.196828 0.882609
vt 0.198101 0.882609
vt 0.198101 0.884641
vt 0.196828 0.884641
vt 0.199700 0.862402
vt 0.197947 0.862402
vt 0.194321 0.884732
vt 0.194321 0.886004
vt 0.194595 0.881220
vt 0.194595 0.877867
vt 0.194835 0.878107
vt 0.194835 0.880980
vt 0.196588 0.878107
vt 0.196588 0.880980
vt 0.198341 0.884981
vt 0.196588 0.884981
vt 0.199187 0.874819
vt 0.199187 0.876092
vt 0.193322 0.877867
vt 0.193322 0.881220
vt 0.193082 0.880980
vt 0.193082 0.878107
vt 0.198187 0.850546
vt 0.199460 0.850546
vt 0.199460 0.852578
vt 0.198187 0.852578
vt 0.198341 0.881373
vt 0.198341 0.879620
vt 0.199241 0.879620
vt 0.199241 0.881373
vt 0.192928 0.857253
vt 0.192928 0.853899
vt 0.194201 0.853899
vt 0.194201 0.857253
vt 0.198341 0.877867
vt 0.199241 0.877867
vt 0.183692 0.883323
vt 0.184965 0.883323
vt 0.184965 0.885355
vt 0.183692 0.885355
vt 0.199700 0.852917
vt 0.197947 0.852917
vt 0.199580 0.878107
vt 0.199580 0.879380
vt 0.194201 0.860606
vt 0.194441 0.857493
vt 0.194441 0.860366
vt 0.192688 0.857013
vt 0.192688 0.854140
vt 0.185205 0.885694
vt 0.183452 0.885694
vt 0.199580 0.879860
vt 0.199580 0.881133
vt 0.192928 0.860606
vt 0.192688 0.860366
vt 0.192688 0.857493
vt 0.190901 0.882041
vt 0.192174 0.882041
vt 0.192174 0.884072
vt 0.190901 0.884072
vt 0.198341 0.884879
vt 0.198341 0.883126
vt 0.199241 0.883126
vt 0.199241 0.884879
vt 0.196434 0.853899
vt 0.196434 0.850546
vt 0.197707 0.850546
vt 0.197707 0.853899
vt 0.194321 0.886244
vt 0.194321 0.884491
vt 0.195221 0.884491
vt 0.195221 0.886244
vt 0.198187 0.863959
vt 0.199460 0.863959
vt 0.199460 0.865991
vt 0.198187 0.865991
vt 0.192414 0.884412
vt 0.195561 0.884732
vt 0.195561 0.886004
vt 0.195954 0.850546
vt 0.196194 0.850786
vt 0.196194 0.853659
vt 0.196194 0.853659
vt 0.199700 0.866331
vt 0.197947 0.866331
vt 0.199580 0.883366
vt 0.199580 0.884639
vt 0.194681 0.850546
vt 0.194441 0.853659
vt 0.194441 0.850786
vt 0.197947 0.850786
vt 0.197947 0.853659
vt 0.198187 0.852917
vt 0.199460 0.852917
vt 0.199460 0.854949
vt 0.198187 0.854949
vt 0.194681 0.870666
vt 0.194681 0.867313
vt 0.195954 0.867313
vt 0.195954 0.870666
vt 0.197947 0.871073
vt 0.198847 0.871073
vt 0.196828 0.880238
vt 0.198101 0.880238
vt 0.198101 0.882270
vt 0.196828 0.882270
vt 0.199700 0.855288
vt 0.197947 0.855288
vt 0.199187 0.871313
vt 0.199187 0.872586
vt 0.195954 0.860606
vt 0.196194 0.857493
vt 0.196194 0.860366
vt 0.194441 0.870426
vt 0.194441 0.867553
vt 0.198341 0.882609
vt 0.196588 0.882609
vt 0.199580 0.881613
vt 0.199580 0.882886
vt 0.194681 0.860606
vt 0.196194 0.867553
vt 0.196194 0.870426
vt 0.194595 0.883252
vt 0.193322 0.883252
vt 0.199526 0.872826
vt 0.199526 0.871073
vt 0.200426 0.871073
vt 0.200426 0.872826
vt 0.194201 0.867313
vt 0.194201 0.870666
vt 0.192928 0.870666
vt 0.192928 0.867313
vt 0.193082 0.883592
vt 0.194835 0.883592
vt 0.194835 0.884491
vt 0.198187 0.866670
vt 0.199460 0.866670
vt 0.199460 0.868702
vt 0.198187 0.868702
vt 0.192928 0.874019
vt 0.192688 0.873779
vt 0.192688 0.870906
vt 0.199187 0.872586
vt 0.199187 0.871313
vt 0.192240 0.884652
vt 0.192240 0.885925
vt 0.191901 0.886165
vt 0.191901 0.884412
vt 0.194201 0.874019
vt 0.194441 0.870906
vt 0.194441 0.873779
vt 0.192688 0.870426
vt 0.192688 0.867553
vt 0.187198 0.883323
vt 0.188471 0.883323
vt 0.188471 0.885355
vt 0.187198 0.885355
vt 0.198681 0.886632
vt 0.198681 0.884879
vt 0.199580 0.884879
vt 0.199580 0.886632
vt 0.194201 0.850546
vt 0.192928 0.850546
vt 0.194835 0.881220
vt 0.196588 0.881220
vt 0.196588 0.882120
vt 0.194835 0.882120
vt 0.195075 0.882460
vt 0.196348 0.882460
vt 0.196348 0.884491
vt 0.195075 0.884491
vt 0.188711 0.885694
vt 0.186958 0.885694
vt 0.194201 0.877373
vt 0.198341 0.886392
vt 0.198341 0.885119
vt 0.190661 0.884652
vt 0.190661 0.885925
vt 0.190322 0.886165
vt 0.190322 0.884412
vt 0.192928 0.877373
vt 0.192688 0.877133
vt 0.192688 0.874260
vt 0.192688 0.853659
vt 0.192688 0.850786
vt 0.197707 0.867231
vt 0.196434 0.867231
vt 0.196434 0.865199
vt 0.197707 0.865199
vt 0.189248 0.886165
vt 0.189248 0.884412
vt 0.190148 0.884412
vt 0.190148 0.886165
vt 0.194201 0.863959
vt 0.192928 0.863959
vt 0.197947 0.864859
vt 0.196194 0.864859
vt 0.196194 0.863959
vt 0.197947 0.863959
vt 0.198187 0.869041
vt 0.199460 0.869041
vt 0.199460 0.871073
vt 0.198187 0.871073
vt 0.197947 0.868702
vt 0.199700 0.868702
vt 0.192688 0.867073
vt 0.192688 0.864200
vt 0.194441 0.860846
vt 0.194441 0.863719
vt 0.188908 0.885925
vt 0.188908 0.884652
vt 0.198167 0.885221
vt 0.198167 0.886493
vt 0.197827 0.886734
vt 0.197827 0.884981
vt 0.194441 0.864200
vt 0.194441 0.867073
vt 0.192688 0.863719
vt 0.192688 0.860846
vt 0.196434 0.868470
vt 0.197707 0.868470
vt 0.197707 0.870502
vt 0.196434 0.870502
vt 0.196194 0.867231
vt 0.197947 0.867231
vt 0.197947 0.868130
vt 0.196194 0.868130
vt 0.195954 0.863959
vt 0.194681 0.863959
vt 0.196194 0.870502
vt 0.197947 0.870502
vt 0.197947 0.871401
vt 0.196194 0.871401
vt 0.196434 0.871741
vt 0.197707 0.871741
vt 0.197707 0.873773
vt 0.196434 0.873773
vt 0.200002 0.855869
vt 0.200002 0.854596
vt 0.200342 0.854356
vt 0.200342 0.856109
vt 0.194681 0.863959
vt 0.194681 0.867313
vt 0.196194 0.860846
vt 0.196194 0.863719
vt 0.200342 0.857862
vt 0.200002 0.857622
vt 0.200002 0.856349
vt 0.196194 0.864200
vt 0.196194 0.867073
vt 0.185445 0.883663
vt 0.186718 0.883663
vt 0.186718 0.885694
vt 0.185445 0.885694
vt 0.199526 0.874579
vt 0.200426 0.874579
vt 0.197707 0.857253
vt 0.196434 0.857253
vt 0.197947 0.877044
vt 0.196194 0.877044
vt 0.196194 0.876144
vt 0.197947 0.876144
vt 0.197707 0.875804
vt 0.196434 0.875804
vt 0.196157 0.886004
vt 0.196157 0.884732
vt 0.196497 0.884491
vt 0.196497 0.886244
vt 0.194681 0.870666
vt 0.197947 0.854140
vt 0.197947 0.857013
vt 0.199187 0.874339
vt 0.199187 0.873066
vt 0.185205 0.883323
vt 0.186958 0.883323
vt 0.196194 0.870906
vt 0.196194 0.873779
vt 0.189148 0.882380
vt 0.190421 0.882380
vt 0.190421 0.884412
vt 0.189148 0.884412
vt 0.199526 0.876332
vt 0.200426 0.876332
vt 0.197707 0.860606
vt 0.196434 0.860606
vt 0.196928 0.886734
vt 0.196928 0.884981
vt 0.198187 0.855628
vt 0.199460 0.855628
vt 0.196588 0.886493
vt 0.196588 0.885221
vt 0.196434 0.863959
vt 0.196194 0.863719
vt 0.196194 0.860846
vt 0.197947 0.857493
vt 0.197947 0.860366
vt 0.199187 0.876092
vt 0.199187 0.874819
vt 0.188908 0.882041
vt 0.190661 0.882041
vt 0.197707 0.863959
vt 0.197947 0.860846
vt 0.197947 0.863719
s 0
usemtl texture
f 33/1/1 47/2/1 55/3/1 49/4/1
f 25/5/2 17/6/2 35/7/2 51/8/2
f 29/9/2 25/5/2 51/8/2 59/10/2
f 20/11/2 29/9/2 59/10/2 37/12/2
f 5/13/2 13/14/2 10/15/2 1/16/2
f 166/17/3 162/18/3 152/19/3 150/20/3 149/21/3 146/22/3 8/23/3 4/24/3 141/25/3 143/26/3 142/27/3 156/28/3 157/29/3 182/30/3 158/31/3 155/32/3 144/33/3 148/34/3 160/35/3 161/36/3
f 182/30/3 157/29/3 185/37/3 184/38/3 183/39/3 141/25/3 4/24/3 11/40/3 16/41/3 8/23/3 146/22/3 147/42/3 145/43/3 162/18/3 166/17/3 168/44/3 170/45/3 181/46/3 173/47/3 177/48/3 176/49/3 175/50/3 178/51/3 180/52/3 179/53/3 214/54/3 212/55/3 208/56/3 209/57/3 207/58/3 213/59/3 217/60/3 204/61/3 206/62/3 203/63/3 216/64/3 215/65/3 210/66/3 211/67/3 205/68/3 196/69/3 193/70/3 194/71/3 191/72/3 188/73/3 186/74/3
f 198/75/3 172/76/3 174/77/3 171/78/3 169/79/3 167/80/3 165/81/3 164/82/3 154/83/3 151/84/3 159/85/3 153/86/3 163/87/3 187/88/3 189/89/3 190/90/3 192/91/3 199/92/3 195/93/3 197/94/3 201/95/3 202/96/3 218/97/3 200/98/3
f 209/57/3 208/56/3 175/50/3 176/49/3
f 203/63/3 206/62/3 196/69/3 205/68/3
f 40/4/4 41/99/4 47/100/4 33/1/4
f 31/101/3 21/102/3 43/103/3 61/104/3
f 57/4/5 63/3/5 41/105/5 40/106/5
f 49/99/6 55/4/6 63/106/6 57/107/6
f 27/108/3 31/101/3 61/104/3 54/109/3
f 21/102/3 24/110/3 45/111/3 43/103/3
f 24/110/3 27/108/3 54/109/3 45/111/3
f 5/13/7 1/16/7 20/112/7 17/113/7
f 66/114/8 67/115/8 24/116/8 21/117/8
f 13/14/9 5/13/9 17/113/9 25/118/9
f 67/115/10 70/119/10 27/120/10 24/116/10
f 10/15/11 13/14/11 25/118/11 29/121/11
f 70/119/12 72/122/12 31/123/12 27/120/12
f 1/16/13 10/15/13 29/121/13 20/112/13
f 72/122/14 66/114/14 21/117/14 31/123/14
f 35/7/15 37/12/15 40/124/15 33/100/15
f 43/103/16 45/111/16 47/125/16 41/126/16
f 51/8/17 35/7/17 33/100/17 49/127/17
f 45/111/18 54/109/18 55/127/18 47/125/18
f 59/10/19 51/8/19 49/127/19 57/128/19
f 54/109/20 61/104/20 63/129/20 55/127/20
f 37/12/21 59/10/21 57/128/21 40/124/21
f 61/104/22 43/103/22 41/126/22 63/129/22
f 17/6/2 20/11/2 37/12/2 35/7/2
f 74/130/3 76/131/3 67/115/3 66/114/3
f 76/131/3 78/132/3 70/119/3 67/115/3
f 78/132/3 80/133/3 72/122/3 70/119/3
f 80/133/3 74/130/3 66/114/3 72/122/3
f 82/134/23 83/135/23 76/131/23 74/130/23
f 83/135/24 85/136/24 78/132/24 76/131/24
f 85/136/25 88/137/25 80/133/25 78/132/25
f 88/137/26 82/134/26 74/130/26 80/133/26
f 4/24/27 8/23/27 83/135/27 82/134/27
f 8/23/28 16/41/28 85/136/28 83/135/28
f 16/41/29 11/40/29 88/137/29 85/136/29
f 11/40/30 4/24/30 82/134/30 88/137/30
f 87/138/3 64/139/3 6/140/3 42/141/3
f 101/142/3 109/143/3 48/144/3 26/145/3
f 65/146/3 92/147/3 34/148/3 18/149/3
f 112/150/3 100/151/3 15/152/3 44/153/3
f 84/154/3 60/155/3 7/156/3 46/157/3
f 114/158/3 98/159/3 14/160/3 39/161/3
f 90/162/3 56/163/3 3/164/3 38/165/3
f 116/166/3 96/167/3 12/168/3 36/169/3
f 36/169/3 12/168/3 50/170/3 91/171/3
f 28/172/3 36/169/3 91/171/3 68/173/3
f 103/174/3 116/166/3 36/169/3 28/172/3
f 38/165/3 3/164/3 95/175/3 115/176/3
f 19/177/3 38/165/3 115/176/3 104/178/3
f 69/179/3 90/162/3 38/165/3 19/177/3
f 39/161/3 14/160/3 53/180/3 89/181/3
f 30/182/3 39/161/3 89/181/3 71/183/3
f 105/184/3 114/158/3 39/161/3 30/182/3
f 42/141/3 6/140/3 97/185/3 113/186/3
f 22/187/3 42/141/3 113/186/3 106/188/3
f 73/189/3 84/154/3 46/157/3 23/190/3
f 44/153/3 15/152/3 62/191/3 86/192/3
f 32/193/3 44/153/3 86/192/3 79/194/3
f 107/195/3 112/150/3 44/153/3 32/193/3
f 46/157/3 7/156/3 99/196/3 111/197/3
f 23/190/3 46/157/3 111/197/3 108/198/3
f 48/144/3 9/199/3 58/200/3 81/201/3
f 26/145/3 48/144/3 81/201/3 75/202/3
f 34/148/3 2/203/3 93/204/3 110/205/3
f 18/149/3 34/148/3 110/205/3 102/206/3
f 77/207/3 87/138/3 42/141/3 22/187/3
f 84/154/3 81/201/3 58/200/3 60/155/3
f 87/138/3 86/192/3 62/191/3 64/139/3
f 90/162/3 89/181/3 53/180/3 56/163/3
f 92/147/3 91/171/3 50/170/3 52/208/3
f 73/189/3 75/202/3 81/201/3 84/154/3
f 77/207/3 79/194/3 86/192/3 87/138/3
f 69/179/3 71/183/3 89/181/3 90/162/3
f 65/146/3 68/173/3 91/171/3 92/147/3
f 92/147/3 52/208/3 2/203/3 34/148/3
f 110/205/3 109/143/3 101/142/3 102/206/3
f 112/150/3 111/197/3 99/196/3 100/151/3
f 114/158/3 113/186/3 97/185/3 98/159/3
f 116/166/3 115/176/3 95/175/3 96/167/3
f 93/204/3 94/209/3 109/143/3 110/205/3
f 107/195/3 108/198/3 111/197/3 112/150/3
f 105/184/3 106/188/3 113/186/3 114/158/3
f 103/174/3 104/178/3 115/176/3 116/166/3
f 109/143/3 94/209/3 9/199/3 48/144/3
f 122/210/3 121/211/3 117/212/3 118/213/3
f 119/214/3 120/215/3 121/211/3 122/210/3
f 128/216/3 127/217/3 123/218/3 124/219/3
f 125/220/3 126/221/3 127/217/3 128/216/3
f 134/222/3 133/223/3 129/224/3 130/225/3
f 131/226/3 132/227/3 133/223/3 134/222/3
f 140/228/3 139/229/3 135/230/3 136/231/3
f 137/232/3 138/233/3 139/229/3 140/228/3
f 60/234/31 58/235/31 164/236/31 165/237/31
f 64/238/32 62/239/32 172/235/32 198/234/32
f 195/240/33 56/241/33 53/242/33 197/243/33
f 163/244/34 52/245/34 50/246/34 187/247/34
f 161/248/33 75/249/33 73/250/33 166/251/33
f 177/252/34 79/253/34 77/254/34 209/255/34 176/256/34
f 71/257/31 69/258/31 196/259/31 206/260/31
f 68/261/32 65/262/32 158/263/32 182/264/32 186/265/32
f 2/266/35 52/245/35 163/244/35 153/267/35
f 187/247/36 50/246/36 12/268/36 189/269/36
f 3/270/37 56/241/37 195/240/37 199/271/37
f 197/243/38 53/242/38 14/272/38 201/273/38
f 7/274/39 60/234/39 165/237/39 167/275/39
f 58/235/40 9/276/40 154/277/40 164/236/40
f 6/278/41 64/238/41 198/234/41 200/274/41
f 62/239/42 15/279/42 174/276/42 172/235/42
f 158/263/41 65/262/41 18/280/41 155/281/41
f 28/282/42 68/261/42 186/265/42 188/283/42
f 69/258/39 19/284/39 193/285/39 196/259/39
f 30/286/40 71/257/40 206/260/40 204/287/40
f 166/251/37 73/250/37 23/288/37 168/289/37
f 26/290/38 75/249/38 161/248/38 160/291/38
f 77/254/35 22/292/35 207/293/35 209/255/35
f 32/294/36 79/253/36 177/252/36 173/295/36
f 144/296/6 102/297/6 101/298/6 148/299/6
f 100/300/1 99/301/1 169/302/1 171/303/1
f 202/304/6 98/305/6 97/306/6 218/307/6
f 190/308/5 96/309/5 95/310/5 192/311/5
f 94/303/4 93/302/4 159/312/4 151/313/4
f 170/314/5 108/315/5 107/316/5 181/317/5
f 106/318/4 105/319/4 217/320/4 213/321/4
f 104/322/1 103/323/1 191/324/1 194/325/1
f 9/276/43 94/303/43 151/313/43 154/277/43
f 159/326/44 93/327/44 2/328/44 153/329/44
f 12/268/45 96/309/45 190/308/45 189/269/45
f 192/297/46 95/330/46 3/270/46 199/271/46
f 201/273/47 14/272/47 98/305/47 202/304/47
f 97/331/48 6/278/48 200/274/48 218/332/48
f 174/276/49 15/279/49 100/300/49 171/303/49
f 99/332/50 7/274/50 167/275/50 169/333/50
f 148/299/47 101/298/47 26/290/47 160/291/47
f 18/334/48 102/335/48 144/226/48 155/336/48
f 191/324/49 103/323/49 28/282/49 188/283/49
f 19/284/50 104/315/50 194/314/50 193/285/50
f 105/319/43 30/286/43 204/287/43 217/320/43
f 207/293/44 22/292/44 106/337/44 213/338/44
f 107/316/45 32/294/45 173/295/45 181/317/45
f 168/289/46 23/288/46 108/339/46 170/340/46
f 145/341/34 122/342/34 118/343/34 162/344/34
f 118/345/31 117/346/31 152/347/31 162/348/31
f 152/344/32 117/343/32 121/349/32 150/350/32
f 149/351/33 120/352/33 119/353/33 147/354/33 146/355/33
f 147/356/34 119/357/34 122/342/34 145/341/34
f 121/349/32 120/358/32 149/359/32 150/350/32
f 128/360/31 124/361/31 208/362/31 212/363/31
f 124/364/32 123/365/32 178/366/32 175/367/32 208/368/32
f 178/330/33 123/369/33 127/370/33 180/371/33
f 179/364/34 126/372/34 125/373/34 214/365/34
f 125/374/31 128/360/31 212/363/31 214/375/31
f 180/371/33 127/370/33 126/376/33 179/377/33
f 134/378/32 130/379/32 205/380/32 211/381/32
f 205/345/33 130/382/33 129/383/33 203/346/33
f 129/384/34 133/385/34 216/386/34 203/322/34
f 132/353/31 131/387/31 210/388/31 215/354/31
f 131/361/32 134/378/32 211/381/32 210/362/32
f 216/386/34 133/385/34 132/389/34 215/390/34
f 142/391/33 140/392/33 136/393/33 156/394/33
f 156/382/34 136/368/34 135/366/34 185/383/34 157/395/34
f 135/379/31 139/396/31 184/397/31 185/380/31
f 138/398/32 137/399/32 143/373/32 141/400/32 183/372/32
f 143/390/33 137/389/33 140/392/33 142/391/33
f 139/396/31 138/401/31 183/402/31 184/397/31
f 227/403/5 229/404/5 221/405/5 219/406/5
f 232/407/6 233/408/6 230/409/6 228/410/6
f 233/411/3 226/412/3 222/413/3 230/414/3
f 220/415/4 222/416/4 226/417/4 224/418/4
f 223/419/1 225/420/1 234/421/1 231/422/1
f 219/406/34 221/405/34 222/423/34 220/424/34
f 225/425/31 223/426/31 224/418/31 226/417/31
f 232/427/17 224/428/17 223/429/17 231/430/17
f 226/412/18 233/411/18 234/431/18 225/432/18
f 233/433/32 232/434/32 231/422/32 234/421/32
f 229/435/33 227/436/33 228/410/33 230/409/33
f 220/437/21 228/438/21 227/439/21 219/440/21
f 230/414/22 222/413/22 221/441/22 229/442/22
f 224/428/2 232/427/2 228/438/2 220/437/2
f 243/443/5 245/444/5 237/445/5 235/446/5
f 248/447/6 249/407/6 246/410/6 244/448/6
f 249/449/3 242/450/3 238/451/3 246/452/3
f 236/453/4 238/454/4 242/455/4 240/456/4
f 239/457/1 241/458/1 250/459/1 247/460/1
f 235/446/34 237/445/34 238/461/34 236/462/34
f 241/463/31 239/464/31 240/456/31 242/455/31
f 248/465/17 240/466/17 239/467/17 247/468/17
f 242/450/18 249/449/18 250/469/18 241/470/18
f 249/471/32 248/472/32 247/460/32 250/459/32
f 245/473/33 243/474/33 244/448/33 246/410/33
f 236/475/21 244/476/21 243/477/21 235/478/21
f 246/452/22 238/451/22 237/468/22 245/467/22
f 240/466/2 248/465/2 244/476/2 236/475/2
f 259/479/6 261/480/6 253/481/6 251/482/6
f 264/483/1 265/484/1 262/485/1 260/486/1
f 265/487/3 258/488/3 254/489/3 262/490/3
f 252/484/5 254/491/5 258/492/5 256/485/5
f 255/493/4 257/494/4 266/495/4 263/496/4
f 251/482/33 253/481/33 254/497/33 252/498/33
f 257/499/34 255/500/34 256/485/34 258/492/34
f 264/501/15 256/490/15 255/502/15 263/503/15
f 258/488/16 265/487/16 266/504/16 257/505/16
f 265/506/31 264/507/31 263/496/31 266/495/31
f 261/508/32 259/509/32 260/486/32 262/485/32
f 252/487/19 260/510/19 259/511/19 251/512/19
f 262/490/20 254/489/20 253/442/20 261/441/20
f 256/490/2 264/501/2 260/510/2 252/487/2
f 275/513/6 277/514/6 269/515/6 267/516/6
f 280/517/1 281/518/1 278/519/1 276/520/1
f 281/521/3 274/522/3 270/523/3 278/524/3
f 268/525/5 270/526/5 274/527/5 272/528/5
f 271/529/4 273/530/4 282/531/4 279/532/4
f 267/516/33 269/515/33 270/533/33 268/416/33
f 273/534/34 271/535/34 272/528/34 274/527/34
f 280/411/15 272/536/15 271/537/15 279/538/15
f 274/522/16 281/521/16 282/539/16 273/537/16
f 281/540/31 280/541/31 279/532/31 282/531/31
f 277/542/32 275/543/32 276/520/32 278/519/32
f 268/544/19 276/414/19 275/545/19 267/546/19
f 278/524/20 270/523/20 269/547/20 277/548/20
f 272/536/2 280/411/2 276/414/2 268/544/2
f 291/549/6 293/550/6 285/551/6 283/552/6
f 296/518/1 297/483/1 294/486/1 292/519/1
f 297/553/3 290/554/3 286/555/3 294/556/3
f 284/408/5 286/557/5 290/558/5 288/409/5
f 287/559/4 289/560/4 298/561/4 295/562/4
f 283/552/33 285/551/33 286/563/33 284/564/33
f 289/565/34 287/566/34 288/409/34 290/558/34
f 296/567/15 288/412/15 287/568/15 295/569/15
f 290/554/16 297/553/16 298/570/16 289/571/16
f 297/572/31 296/573/31 295/562/31 298/561/31
f 293/574/32 291/575/32 292/519/32 294/486/32
f 284/413/19 292/576/19 291/503/19 283/502/19
f 294/556/20 286/555/20 285/577/20 293/578/20
f 288/412/2 296/567/2 292/576/2 284/413/2
f 307/476/1 309/465/1 301/579/1 299/580/1
f 312/581/4 313/582/4 310/583/4 308/584/4
f 313/585/3 306/586/3 302/587/3 310/588/3
f 300/589/6 302/590/6 306/591/6 304/454/6
f 303/592/5 305/593/5 314/594/5 311/595/5
f 299/580/32 301/579/32 302/590/32 300/589/32
f 305/593/33 303/592/33 304/541/33 306/540/33
f 312/587/21 304/596/21 303/597/21 311/598/21
f 306/586/22 313/585/22 314/571/22 305/570/22
f 313/582/34 312/581/34 311/599/34 314/600/34
f 309/601/31 307/602/31 308/603/31 310/604/31
f 300/605/17 308/586/17 307/606/17 299/607/17
f 310/588/18 302/587/18 301/608/18 309/609/18
f 304/596/2 312/587/2 308/586/2 300/605/2
f 323/610/1 325/611/1 317/612/1 315/613/1
f 328/614/4 329/615/4 326/616/4 324/617/4
f 329/618/3 322/489/3 318/488/3 326/619/3
f 316/620/6 318/621/6 322/622/6 320/623/6
f 319/624/5 321/625/5 330/626/5 327/627/5
f 315/613/32 317/612/32 318/628/32 316/629/32
f 321/625/33 319/624/33 320/623/33 322/622/33
f 328/630/21 320/605/21 319/440/21 327/439/21
f 322/489/22 329/618/22 330/546/22 321/545/22
f 329/615/34 328/614/34 327/631/34 330/632/34
f 325/633/31 323/634/31 324/635/31 326/636/31
f 316/596/17 324/637/17 323/638/17 315/639/17
f 326/619/18 318/488/18 317/640/18 325/641/18
f 320/605/2 328/630/2 324/637/2 316/596/2
f 339/642/1 341/643/1 333/644/1 331/645/1
f 344/646/4 345/647/4 342/648/4 340/649/4
f 345/501/3 338/650/3 334/651/3 342/510/3
f 332/652/6 334/653/6 338/654/6 336/655/6
f 335/656/5 337/657/5 346/658/5 343/659/5
f 331/645/32 333/644/32 334/653/32 332/652/32
f 337/657/33 335/656/33 336/660/33 338/661/33
f 344/651/21 336/588/21 335/662/21 343/663/21
f 338/650/22 345/501/22 346/664/22 337/665/22
f 345/647/34 344/646/34 343/666/34 346/667/34
f 341/668/31 339/669/31 340/670/31 342/671/31
f 332/585/17 340/650/17 339/672/17 331/673/17
f 342/510/18 334/651/18 333/674/18 341/675/18
f 336/588/2 344/651/2 340/650/2 332/585/2
f 355/676/4 357/677/4 349/678/4 347/679/4
f 360/680/5 361/681/5 358/682/5 356/683/5
f 361/567/3 354/684/3 350/685/3 358/576/3
f 348/686/1 350/687/1 354/688/1 352/689/1
f 351/690/6 353/691/6 362/692/6 359/693/6
f 347/694/31 349/695/31 350/696/31 348/697/31
f 353/691/32 351/690/32 352/689/32 354/688/32
f 360/698/19 352/699/19 351/673/19 359/672/19
f 354/684/20 361/567/20 362/700/20 353/701/20
f 361/697/33 360/702/33 359/703/33 362/704/33
f 357/677/34 355/676/34 356/683/34 358/682/34
f 348/555/15 356/684/15 355/705/15 347/706/15
f 358/576/16 350/685/16 349/665/16 357/664/16
f 352/699/2 360/698/2 356/684/2 348/555/2
f 371/707/4 373/708/4 365/709/4 363/710/4
f 376/711/5 377/581/5 374/584/5 372/712/5
f 377/524/3 370/713/3 366/714/3 374/521/3
f 364/715/1 366/716/1 370/717/1 368/718/1
f 367/719/6 369/720/6 378/693/6 375/692/6
f 363/721/31 365/722/31 366/723/31 364/724/31
f 369/720/32 367/719/32 368/718/32 370/717/32
f 376/725/19 368/437/19 367/607/19 375/606/19
f 370/713/20 377/524/20 378/726/20 369/727/20
f 377/581/33 376/711/33 375/728/33 378/729/33
f 373/708/34 371/707/34 372/730/34 374/731/34
f 364/428/15 372/556/15 371/732/15 363/733/15
f 374/521/16 366/714/16 365/432/16 373/431/16
f 368/437/2 376/725/2 372/556/2 364/428/2
f 387/734/4 389/735/4 381/736/4 379/737/4
f 392/738/5 393/711/5 390/712/5 388/739/5
f 393/713/3 386/740/3 382/741/3 390/714/3
f 380/742/1 382/743/1 386/671/1 384/670/1
f 383/744/6 385/745/6 394/404/6 391/403/6
f 379/746/31 381/747/31 382/743/31 380/742/31
f 385/745/32 383/744/32 384/564/32 386/563/32
f 392/741/19 384/748/19 383/749/19 391/750/19
f 386/740/20 393/713/20 394/751/20 385/752/20
f 393/711/33 392/738/33 391/753/33 394/754/33
f 389/735/34 387/734/34 388/755/34 390/756/34
f 380/757/15 388/740/15 387/758/15 379/759/15
f 390/714/16 382/741/16 381/569/16 389/568/16
f 384/748/2 392/741/2 388/740/2 380/757/2
